<svg width="520" height="245" viewBox="0 0 520 245" fill="none" xmlns="http://www.w3.org/2000/svg">
<rect x="1.5" y="1.5" width="517" height="242" rx="18.5" fill="#005D91" stroke="#005D91" stroke-width="3"/>
<path d="M79.207 84.375L84.5586 95H90.4375V94.7461L84.3242 83.0078C85.1055 82.6562 85.8086 82.2396 86.4336 81.7578C87.0716 81.276 87.6185 80.7096 88.0742 80.0586C88.5169 79.4206 88.8555 78.6979 89.0898 77.8906C89.3372 77.0703 89.4609 76.1523 89.4609 75.1367C89.4609 73.7305 89.2135 72.4935 88.7188 71.4258C88.237 70.3581 87.5469 69.4661 86.6484 68.75C85.737 68.0339 84.6432 67.4935 83.3672 67.1289C82.0911 66.7513 80.6654 66.5625 79.0898 66.5625H69.5586V95H75.0469V84.375H79.207ZM75.0469 79.9219V71.0156H79.0898C79.8451 71.0156 80.5156 71.1068 81.1016 71.2891C81.6875 71.4714 82.1823 71.7318 82.5859 72.0703C83.0417 72.4479 83.3802 72.9297 83.6016 73.5156C83.8359 74.0885 83.9531 74.7526 83.9531 75.5078C83.9531 76.1328 83.862 76.6992 83.6797 77.207C83.5104 77.7148 83.2565 78.151 82.918 78.5156C82.5143 78.9714 81.987 79.3229 81.3359 79.5703C80.6979 79.8047 79.9557 79.9219 79.1094 79.9219H75.0469ZM104.031 95.3906C106.076 95.3906 107.846 94.9935 109.344 94.1992C110.841 93.4049 111.935 92.5195 112.625 91.543L109.91 88.6133C109.285 89.4206 108.471 90.026 107.469 90.4297C106.466 90.8333 105.431 91.0352 104.363 91.0352C103.608 91.0352 102.911 90.918 102.273 90.6836C101.635 90.4492 101.069 90.1172 100.574 89.6875C100.092 89.2708 99.7083 88.8086 99.4219 88.3008C99.1354 87.7799 98.901 87.0964 98.7188 86.25V86.1914H113.055V83.8867C113.055 82.3372 112.84 80.9245 112.41 79.6484C111.98 78.3594 111.355 77.2591 110.535 76.3477C109.702 75.4362 108.686 74.7331 107.488 74.2383C106.303 73.7305 104.949 73.4766 103.426 73.4766C101.954 73.4766 100.594 73.7435 99.3438 74.2773C98.0938 74.8112 97.013 75.5599 96.1016 76.5234C95.1901 77.487 94.4805 78.6393 93.9727 79.9805C93.4648 81.3086 93.2109 82.7799 93.2109 84.3945V85.1758C93.2109 86.5951 93.4648 87.9297 93.9727 89.1797C94.4935 90.4167 95.2292 91.4909 96.1797 92.4023C97.1302 93.3268 98.2695 94.056 99.5977 94.5898C100.926 95.1237 102.404 95.3906 104.031 95.3906ZM103.387 77.8711C104.077 77.8711 104.682 77.9818 105.203 78.2031C105.737 78.4115 106.186 78.6979 106.551 79.0625C106.915 79.4401 107.202 79.8828 107.41 80.3906C107.618 80.8984 107.723 81.4388 107.723 82.0117V82.4414H98.8164C98.9466 81.7513 99.1419 81.1263 99.4023 80.5664C99.6628 80.0065 99.9883 79.5247 100.379 79.1211C100.757 78.7174 101.199 78.4115 101.707 78.2031C102.215 77.9818 102.775 77.8711 103.387 77.8711ZM127.156 91.0547C126.284 91.0547 125.561 90.8789 124.988 90.5273C124.428 90.1758 123.986 89.707 123.66 89.1211C123.322 88.5482 123.087 87.8841 122.957 87.1289C122.827 86.3607 122.762 85.5664 122.762 84.7461V84.1602C122.762 83.3529 122.827 82.5716 122.957 81.8164C123.1 81.0612 123.341 80.3906 123.68 79.8047C124.005 79.2188 124.448 78.75 125.008 78.3984C125.568 78.0469 126.277 77.8711 127.137 77.8711C127.723 77.8711 128.263 77.9753 128.758 78.1836C129.253 78.3789 129.676 78.6458 130.027 78.9844C130.379 79.3229 130.646 79.7266 130.828 80.1953C131.01 80.6641 131.089 81.1589 131.062 81.6797H136.18C136.206 80.4297 135.997 79.3034 135.555 78.3008C135.112 77.2852 134.493 76.4193 133.699 75.7031C132.892 75 131.935 74.4531 130.828 74.0625C129.721 73.6719 128.517 73.4766 127.215 73.4766C125.587 73.4766 124.155 73.7565 122.918 74.3164C121.694 74.8763 120.665 75.638 119.832 76.6016C118.999 77.5651 118.374 78.6979 117.957 80C117.54 81.2891 117.332 82.6758 117.332 84.1602V84.7461C117.332 86.2305 117.54 87.6237 117.957 88.9258C118.387 90.2148 119.018 91.3411 119.852 92.3047C120.672 93.2682 121.701 94.0299 122.938 94.5898C124.174 95.1367 125.613 95.4102 127.254 95.4102C128.465 95.4102 129.611 95.2214 130.691 94.8438C131.785 94.4531 132.742 93.9193 133.562 93.2422C134.383 92.5651 135.027 91.7578 135.496 90.8203C135.978 89.8828 136.206 88.8672 136.18 87.7734H131.062C131.089 88.2682 130.997 88.7174 130.789 89.1211C130.594 89.5247 130.314 89.8698 129.949 90.1562C129.585 90.4427 129.161 90.6641 128.68 90.8203C128.198 90.9766 127.69 91.0547 127.156 91.0547ZM155.613 95H160.535V73.8672H155.086V88.6914C154.917 89.0299 154.715 89.3359 154.48 89.6094C154.246 89.8828 153.979 90.1172 153.68 90.3125C153.328 90.5339 152.918 90.7031 152.449 90.8203C151.993 90.9375 151.479 90.9961 150.906 90.9961C150.268 90.9961 149.728 90.918 149.285 90.7617C148.842 90.6055 148.484 90.3451 148.211 89.9805C147.938 89.6289 147.736 89.1602 147.605 88.5742C147.488 87.9883 147.43 87.2656 147.43 86.4062V73.8672H142V86.3672C142 87.9688 142.176 89.3424 142.527 90.4883C142.892 91.6211 143.4 92.5521 144.051 93.2812C144.702 94.0234 145.483 94.5638 146.395 94.9023C147.306 95.2409 148.309 95.4102 149.402 95.4102C150.6 95.4102 151.701 95.1107 152.703 94.5117C153.719 93.9128 154.585 93.0859 155.301 92.0312L155.613 95ZM181.023 73.4766C179.604 73.4766 178.296 73.8216 177.098 74.5117C175.9 75.1888 174.871 76.1263 174.012 77.3242L173.973 76.8555L173.758 73.8672H168.699V95H174.129V82.3047C174.376 81.7057 174.689 81.1849 175.066 80.7422C175.444 80.2995 175.9 79.9349 176.434 79.6484C176.876 79.401 177.378 79.2188 177.938 79.1016C178.51 78.9714 179.148 78.9062 179.852 78.9062C180.529 78.9062 181.238 78.9518 181.98 79.043C182.736 79.1211 183.471 79.2448 184.188 79.4141L184.988 74.0039C184.559 73.8737 183.992 73.7565 183.289 73.6523C182.599 73.5352 181.844 73.4766 181.023 73.4766ZM203.504 89.1992C203.504 89.5247 203.419 89.8242 203.25 90.0977C203.094 90.3711 202.853 90.612 202.527 90.8203C202.189 91.0286 201.753 91.1979 201.219 91.3281C200.698 91.4453 200.086 91.5039 199.383 91.5039C198.797 91.5039 198.224 91.4453 197.664 91.3281C197.117 91.2109 196.629 91.0221 196.199 90.7617C195.77 90.5143 195.418 90.1888 195.145 89.7852C194.871 89.3685 194.715 88.8737 194.676 88.3008H189.5C189.5 89.1602 189.708 90.0195 190.125 90.8789C190.555 91.7253 191.18 92.4805 192 93.1445C192.82 93.8216 193.836 94.3685 195.047 94.7852C196.271 95.2018 197.677 95.4102 199.266 95.4102C200.711 95.4102 202.02 95.2539 203.191 94.9414C204.363 94.6159 205.366 94.1667 206.199 93.5938C207.02 93.0208 207.651 92.3438 208.094 91.5625C208.549 90.7682 208.777 89.9023 208.777 88.9648C208.777 87.9492 208.549 87.0768 208.094 86.3477C207.651 85.6055 207.033 84.974 206.238 84.4531C205.444 83.9453 204.5 83.5286 203.406 83.2031C202.312 82.8776 201.128 82.6107 199.852 82.4023C198.966 82.2721 198.237 82.1224 197.664 81.9531C197.091 81.7708 196.642 81.569 196.316 81.3477C195.978 81.1393 195.743 80.9049 195.613 80.6445C195.483 80.3711 195.418 80.0781 195.418 79.7656C195.418 79.4531 195.49 79.1602 195.633 78.8867C195.789 78.6003 196.01 78.3529 196.297 78.1445C196.609 77.9102 197.013 77.7279 197.508 77.5977C198.003 77.4674 198.582 77.4023 199.246 77.4023C200.027 77.4023 200.691 77.5 201.238 77.6953C201.798 77.8906 202.241 78.151 202.566 78.4766C202.801 78.724 202.977 79.0039 203.094 79.3164C203.211 79.6159 203.27 79.9414 203.27 80.293H208.699C208.699 79.3164 208.484 78.4115 208.055 77.5781C207.625 76.7448 207.007 76.0221 206.199 75.4102C205.379 74.8112 204.383 74.3424 203.211 74.0039C202.039 73.6523 200.717 73.4766 199.246 73.4766C197.84 73.4766 196.577 73.6523 195.457 74.0039C194.337 74.3555 193.387 74.8307 192.605 75.4297C191.824 76.0286 191.225 76.7253 190.809 77.5195C190.392 78.3138 190.184 79.1471 190.184 80.0195C190.184 80.918 190.385 81.7122 190.789 82.4023C191.206 83.0924 191.779 83.6979 192.508 84.2188C193.237 84.7526 194.109 85.2083 195.125 85.5859C196.154 85.9505 197.286 86.2565 198.523 86.5039C199.5 86.6862 200.307 86.8685 200.945 87.0508C201.583 87.2331 202.098 87.4284 202.488 87.6367C202.866 87.8581 203.126 88.0924 203.27 88.3398C203.426 88.5872 203.504 88.8737 203.504 89.1992ZM213.152 84.2383V84.6484C213.152 86.1979 213.374 87.6302 213.816 88.9453C214.259 90.2474 214.91 91.3802 215.77 92.3438C216.616 93.3073 217.658 94.0625 218.895 94.6094C220.145 95.1432 221.564 95.4102 223.152 95.4102C224.728 95.4102 226.134 95.1432 227.371 94.6094C228.608 94.0625 229.65 93.3073 230.496 92.3438C231.342 91.3802 231.987 90.2474 232.43 88.9453C232.872 87.6302 233.094 86.1979 233.094 84.6484V84.2383C233.094 82.7018 232.872 81.2826 232.43 79.9805C231.987 78.6654 231.342 77.526 230.496 76.5625C229.637 75.599 228.589 74.8438 227.352 74.2969C226.115 73.75 224.702 73.4766 223.113 73.4766C221.525 73.4766 220.112 73.75 218.875 74.2969C217.651 74.8438 216.616 75.599 215.77 76.5625C214.91 77.526 214.259 78.6654 213.816 79.9805C213.374 81.2826 213.152 82.7018 213.152 84.2383ZM218.582 84.6484V84.2383C218.582 83.3789 218.667 82.5651 218.836 81.7969C219.005 81.0286 219.272 80.3516 219.637 79.7656C220.001 79.1797 220.47 78.7174 221.043 78.3789C221.616 78.0404 222.306 77.8711 223.113 77.8711C223.934 77.8711 224.63 78.0404 225.203 78.3789C225.776 78.7174 226.245 79.1797 226.609 79.7656C226.961 80.3516 227.221 81.0286 227.391 81.7969C227.56 82.5651 227.645 83.3789 227.645 84.2383V84.6484C227.645 85.5339 227.56 86.3672 227.391 87.1484C227.221 87.9167 226.961 88.5872 226.609 89.1602C226.245 89.7461 225.776 90.2083 225.203 90.5469C224.63 90.8854 223.947 91.0547 223.152 91.0547C222.332 91.0547 221.629 90.8854 221.043 90.5469C220.47 90.2083 220.001 89.7461 219.637 89.1602C219.272 88.5872 219.005 87.9167 218.836 87.1484C218.667 86.3672 218.582 85.5339 218.582 84.6484ZM251.551 89.1992C251.551 89.5247 251.466 89.8242 251.297 90.0977C251.141 90.3711 250.9 90.612 250.574 90.8203C250.236 91.0286 249.799 91.1979 249.266 91.3281C248.745 91.4453 248.133 91.5039 247.43 91.5039C246.844 91.5039 246.271 91.4453 245.711 91.3281C245.164 91.2109 244.676 91.0221 244.246 90.7617C243.816 90.5143 243.465 90.1888 243.191 89.7852C242.918 89.3685 242.762 88.8737 242.723 88.3008H237.547C237.547 89.1602 237.755 90.0195 238.172 90.8789C238.602 91.7253 239.227 92.4805 240.047 93.1445C240.867 93.8216 241.883 94.3685 243.094 94.7852C244.318 95.2018 245.724 95.4102 247.312 95.4102C248.758 95.4102 250.066 95.2539 251.238 94.9414C252.41 94.6159 253.413 94.1667 254.246 93.5938C255.066 93.0208 255.698 92.3438 256.141 91.5625C256.596 90.7682 256.824 89.9023 256.824 88.9648C256.824 87.9492 256.596 87.0768 256.141 86.3477C255.698 85.6055 255.079 84.974 254.285 84.4531C253.491 83.9453 252.547 83.5286 251.453 83.2031C250.359 82.8776 249.174 82.6107 247.898 82.4023C247.013 82.2721 246.284 82.1224 245.711 81.9531C245.138 81.7708 244.689 81.569 244.363 81.3477C244.025 81.1393 243.79 80.9049 243.66 80.6445C243.53 80.3711 243.465 80.0781 243.465 79.7656C243.465 79.4531 243.536 79.1602 243.68 78.8867C243.836 78.6003 244.057 78.3529 244.344 78.1445C244.656 77.9102 245.06 77.7279 245.555 77.5977C246.049 77.4674 246.629 77.4023 247.293 77.4023C248.074 77.4023 248.738 77.5 249.285 77.6953C249.845 77.8906 250.288 78.151 250.613 78.4766C250.848 78.724 251.023 79.0039 251.141 79.3164C251.258 79.6159 251.316 79.9414 251.316 80.293H256.746C256.746 79.3164 256.531 78.4115 256.102 77.5781C255.672 76.7448 255.053 76.0221 254.246 75.4102C253.426 74.8112 252.43 74.3424 251.258 74.0039C250.086 73.6523 248.764 73.4766 247.293 73.4766C245.887 73.4766 244.624 73.6523 243.504 74.0039C242.384 74.3555 241.434 74.8307 240.652 75.4297C239.871 76.0286 239.272 76.7253 238.855 77.5195C238.439 78.3138 238.23 79.1471 238.23 80.0195C238.23 80.918 238.432 81.7122 238.836 82.4023C239.253 83.0924 239.826 83.6979 240.555 84.2188C241.284 84.7526 242.156 85.2083 243.172 85.5859C244.201 85.9505 245.333 86.2565 246.57 86.5039C247.547 86.6862 248.354 86.8685 248.992 87.0508C249.63 87.2331 250.145 87.4284 250.535 87.6367C250.913 87.8581 251.173 88.0924 251.316 88.3398C251.473 88.5872 251.551 88.8737 251.551 89.1992ZM304.539 95V66.5625H299.109V78.2227H291.062V66.5625H285.613V95H291.062V82.6758H299.109V95H304.539ZM323.777 95H328.699V73.8672H323.25V88.6914C323.081 89.0299 322.879 89.3359 322.645 89.6094C322.41 89.8828 322.143 90.1172 321.844 90.3125C321.492 90.5339 321.082 90.7031 320.613 90.8203C320.158 90.9375 319.643 90.9961 319.07 90.9961C318.432 90.9961 317.892 90.918 317.449 90.7617C317.007 90.6055 316.648 90.3451 316.375 89.9805C316.102 89.6289 315.9 89.1602 315.77 88.5742C315.652 87.9883 315.594 87.2656 315.594 86.4062V73.8672H310.164V86.3672C310.164 87.9688 310.34 89.3424 310.691 90.4883C311.056 91.6211 311.564 92.5521 312.215 93.2812C312.866 94.0234 313.647 94.5638 314.559 94.9023C315.47 95.2409 316.473 95.4102 317.566 95.4102C318.764 95.4102 319.865 95.1107 320.867 94.5117C321.883 93.9128 322.749 93.0859 323.465 92.0312L323.777 95ZM337.391 73.8672H332.723V95H337.664V79.1797C337.729 79.0104 337.801 78.8542 337.879 78.7109C337.957 78.5677 338.048 78.444 338.152 78.3398C338.296 78.1966 338.458 78.0859 338.641 78.0078C338.823 77.9297 339.031 77.8906 339.266 77.8906C339.474 77.8906 339.669 77.9232 339.852 77.9883C340.034 78.0404 340.197 78.138 340.34 78.2812C340.47 78.4245 340.574 78.6263 340.652 78.8867C340.73 79.1471 340.77 79.4792 340.77 79.8828V95H345.555V79.4141C345.555 79.2578 345.555 79.1341 345.555 79.043C345.555 78.9518 345.555 78.8932 345.555 78.8672C345.62 78.724 345.698 78.6003 345.789 78.4961C345.88 78.3789 345.984 78.2747 346.102 78.1836C346.245 78.0924 346.395 78.0208 346.551 77.9688C346.72 77.9167 346.909 77.8906 347.117 77.8906C347.312 77.8906 347.501 77.9232 347.684 77.9883C347.879 78.0404 348.048 78.138 348.191 78.2812C348.335 78.4375 348.445 78.6458 348.523 78.9062C348.615 79.1667 348.66 79.4987 348.66 79.9023V95H353.602V79.9219C353.602 78.75 353.484 77.7604 353.25 76.9531C353.029 76.1328 352.716 75.4622 352.312 74.9414C351.896 74.4336 351.408 74.0625 350.848 73.8281C350.301 73.5938 349.708 73.4766 349.07 73.4766C348.562 73.4766 348.094 73.5417 347.664 73.6719C347.234 73.8021 346.85 73.9844 346.512 74.2188C346.238 74.401 345.984 74.6224 345.75 74.8828C345.529 75.1302 345.327 75.4102 345.145 75.7227C345.027 75.3971 344.884 75.1107 344.715 74.8633C344.559 74.6029 344.37 74.3815 344.148 74.1992C343.862 73.9518 343.523 73.7695 343.133 73.6523C342.742 73.5352 342.299 73.4766 341.805 73.4766C340.789 73.4766 339.923 73.7435 339.207 74.2773C338.504 74.7982 337.951 75.5143 337.547 76.4258L337.391 73.8672ZM371.238 95H376.746V94.668C376.473 94.1341 376.264 93.4961 376.121 92.7539C375.978 92.0117 375.906 91.0742 375.906 89.9414V80.8789C375.906 79.6549 375.678 78.5807 375.223 77.6562C374.767 76.7188 374.135 75.944 373.328 75.332C372.521 74.7201 371.564 74.2578 370.457 73.9453C369.363 73.6328 368.178 73.4766 366.902 73.4766C365.483 73.4766 364.22 73.6589 363.113 74.0234C362.02 74.375 361.095 74.8568 360.34 75.4688C359.572 76.0807 358.986 76.7904 358.582 77.5977C358.191 78.4049 357.996 79.2578 357.996 80.1562H363.426C363.426 79.7786 363.478 79.4336 363.582 79.1211C363.699 78.8086 363.875 78.5417 364.109 78.3203C364.37 78.0729 364.708 77.8841 365.125 77.7539C365.542 77.6107 366.036 77.5391 366.609 77.5391C367.26 77.5391 367.827 77.6237 368.309 77.793C368.803 77.9492 369.214 78.1771 369.539 78.4766C369.852 78.763 370.086 79.1081 370.242 79.5117C370.398 79.9023 370.477 80.3451 370.477 80.8398V82.0898H367.449C365.887 82.0898 364.5 82.2331 363.289 82.5195C362.091 82.793 361.082 83.1966 360.262 83.7305C359.35 84.3164 358.667 85.0651 358.211 85.9766C357.755 86.875 357.527 87.9102 357.527 89.082C357.527 89.9935 357.71 90.8398 358.074 91.6211C358.439 92.3893 358.947 93.0534 359.598 93.6133C360.249 94.1732 361.023 94.6094 361.922 94.9219C362.833 95.2344 363.829 95.3906 364.91 95.3906C365.574 95.3906 366.193 95.3255 366.766 95.1953C367.339 95.0781 367.866 94.9089 368.348 94.6875C368.816 94.4792 369.246 94.2318 369.637 93.9453C370.027 93.6589 370.372 93.3529 370.672 93.0273C370.737 93.4049 370.815 93.763 370.906 94.1016C370.997 94.4401 371.108 94.7396 371.238 95ZM366.062 91.1914C365.555 91.1914 365.105 91.1328 364.715 91.0156C364.337 90.8854 364.018 90.7161 363.758 90.5078C363.497 90.2865 363.296 90.0195 363.152 89.707C363.022 89.3815 362.957 89.0299 362.957 88.6523C362.957 88.1706 363.048 87.7279 363.23 87.3242C363.413 86.9076 363.693 86.5495 364.07 86.25C364.448 85.9635 364.936 85.7422 365.535 85.5859C366.134 85.4167 366.857 85.332 367.703 85.332H370.477V88.9648C370.32 89.2383 370.105 89.5117 369.832 89.7852C369.559 90.0456 369.233 90.2799 368.855 90.4883C368.478 90.6966 368.055 90.8659 367.586 90.9961C367.117 91.1263 366.609 91.1914 366.062 91.1914ZM382.059 95H387.508V79.9805C387.69 79.694 387.892 79.4336 388.113 79.1992C388.335 78.9648 388.582 78.763 388.855 78.5938C389.194 78.3594 389.578 78.1836 390.008 78.0664C390.451 77.9492 390.932 77.8906 391.453 77.8906C392.078 77.8906 392.638 77.9557 393.133 78.0859C393.628 78.2031 394.051 78.418 394.402 78.7305C394.754 79.043 395.021 79.4727 395.203 80.0195C395.398 80.5534 395.496 81.237 395.496 82.0703V95H400.926V81.9922C400.926 80.4557 400.743 79.1536 400.379 78.0859C400.027 77.0052 399.533 76.1198 398.895 75.4297C398.243 74.7526 397.475 74.2578 396.59 73.9453C395.704 73.6328 394.728 73.4766 393.66 73.4766C392.827 73.4766 392.039 73.5938 391.297 73.8281C390.555 74.0625 389.871 74.401 389.246 74.8438C388.882 75.1042 388.536 75.3971 388.211 75.7227C387.885 76.0482 387.586 76.4062 387.312 76.7969L386.98 73.8672H382.059V95ZM405.34 84.2383V84.6484C405.34 86.1979 405.561 87.6302 406.004 88.9453C406.447 90.2474 407.098 91.3802 407.957 92.3438C408.803 93.3073 409.845 94.0625 411.082 94.6094C412.332 95.1432 413.751 95.4102 415.34 95.4102C416.915 95.4102 418.322 95.1432 419.559 94.6094C420.796 94.0625 421.837 93.3073 422.684 92.3438C423.53 91.3802 424.174 90.2474 424.617 88.9453C425.06 87.6302 425.281 86.1979 425.281 84.6484V84.2383C425.281 82.7018 425.06 81.2826 424.617 79.9805C424.174 78.6654 423.53 77.526 422.684 76.5625C421.824 75.599 420.776 74.8438 419.539 74.2969C418.302 73.75 416.889 73.4766 415.301 73.4766C413.712 73.4766 412.299 73.75 411.062 74.2969C409.839 74.8438 408.803 75.599 407.957 76.5625C407.098 77.526 406.447 78.6654 406.004 79.9805C405.561 81.2826 405.34 82.7018 405.34 84.2383ZM410.77 84.6484V84.2383C410.77 83.3789 410.854 82.5651 411.023 81.7969C411.193 81.0286 411.46 80.3516 411.824 79.7656C412.189 79.1797 412.658 78.7174 413.23 78.3789C413.803 78.0404 414.493 77.8711 415.301 77.8711C416.121 77.8711 416.818 78.0404 417.391 78.3789C417.964 78.7174 418.432 79.1797 418.797 79.7656C419.148 80.3516 419.409 81.0286 419.578 81.7969C419.747 82.5651 419.832 83.3789 419.832 84.2383V84.6484C419.832 85.5339 419.747 86.3672 419.578 87.1484C419.409 87.9167 419.148 88.5872 418.797 89.1602C418.432 89.7461 417.964 90.2083 417.391 90.5469C416.818 90.8854 416.134 91.0547 415.34 91.0547C414.52 91.0547 413.816 90.8854 413.23 90.5469C412.658 90.2083 412.189 89.7461 411.824 89.1602C411.46 88.5872 411.193 87.9167 411.023 87.1484C410.854 86.3672 410.77 85.5339 410.77 84.6484ZM443.738 89.1992C443.738 89.5247 443.654 89.8242 443.484 90.0977C443.328 90.3711 443.087 90.612 442.762 90.8203C442.423 91.0286 441.987 91.1979 441.453 91.3281C440.932 91.4453 440.32 91.5039 439.617 91.5039C439.031 91.5039 438.458 91.4453 437.898 91.3281C437.352 91.2109 436.863 91.0221 436.434 90.7617C436.004 90.5143 435.652 90.1888 435.379 89.7852C435.105 89.3685 434.949 88.8737 434.91 88.3008H429.734C429.734 89.1602 429.943 90.0195 430.359 90.8789C430.789 91.7253 431.414 92.4805 432.234 93.1445C433.055 93.8216 434.07 94.3685 435.281 94.7852C436.505 95.2018 437.911 95.4102 439.5 95.4102C440.945 95.4102 442.254 95.2539 443.426 94.9414C444.598 94.6159 445.6 94.1667 446.434 93.5938C447.254 93.0208 447.885 92.3438 448.328 91.5625C448.784 90.7682 449.012 89.9023 449.012 88.9648C449.012 87.9492 448.784 87.0768 448.328 86.3477C447.885 85.6055 447.267 84.974 446.473 84.4531C445.678 83.9453 444.734 83.5286 443.641 83.2031C442.547 82.8776 441.362 82.6107 440.086 82.4023C439.201 82.2721 438.471 82.1224 437.898 81.9531C437.326 81.7708 436.876 81.569 436.551 81.3477C436.212 81.1393 435.978 80.9049 435.848 80.6445C435.717 80.3711 435.652 80.0781 435.652 79.7656C435.652 79.4531 435.724 79.1602 435.867 78.8867C436.023 78.6003 436.245 78.3529 436.531 78.1445C436.844 77.9102 437.247 77.7279 437.742 77.5977C438.237 77.4674 438.816 77.4023 439.48 77.4023C440.262 77.4023 440.926 77.5 441.473 77.6953C442.033 77.8906 442.475 78.151 442.801 78.4766C443.035 78.724 443.211 79.0039 443.328 79.3164C443.445 79.6159 443.504 79.9414 443.504 80.293H448.934C448.934 79.3164 448.719 78.4115 448.289 77.5781C447.859 76.7448 447.241 76.0221 446.434 75.4102C445.613 74.8112 444.617 74.3424 443.445 74.0039C442.273 73.6523 440.952 73.4766 439.48 73.4766C438.074 73.4766 436.811 73.6523 435.691 74.0039C434.572 74.3555 433.621 74.8307 432.84 75.4297C432.059 76.0286 431.46 76.7253 431.043 77.5195C430.626 78.3138 430.418 79.1471 430.418 80.0195C430.418 80.918 430.62 81.7122 431.023 82.4023C431.44 83.0924 432.013 83.6979 432.742 84.2188C433.471 84.7526 434.344 85.2083 435.359 85.5859C436.388 85.9505 437.521 86.2565 438.758 86.5039C439.734 86.6862 440.542 86.8685 441.18 87.0508C441.818 87.2331 442.332 87.4284 442.723 87.6367C443.1 87.8581 443.361 88.0924 443.504 88.3398C443.66 88.5872 443.738 88.8737 443.738 89.1992Z" fill="white"/>
<path d="M72.5195 139H79.3457C80.2539 138.99 81.1328 138.849 81.9824 138.575C82.8418 138.302 83.5986 137.906 84.2529 137.389C84.9072 136.881 85.4297 136.246 85.8203 135.484C86.2109 134.723 86.4014 133.844 86.3916 132.848C86.3916 132.213 86.2939 131.622 86.0986 131.075C85.9131 130.528 85.6494 130.035 85.3076 129.596C84.9854 129.195 84.5752 128.829 84.0771 128.497C83.5791 128.165 83.0615 127.936 82.5244 127.809V127.765C83.042 127.54 83.4814 127.301 83.8428 127.047C84.2139 126.793 84.5508 126.48 84.8535 126.109C85.1465 125.748 85.376 125.338 85.542 124.879C85.7178 124.42 85.8105 123.912 85.8203 123.355C85.8301 122.359 85.6396 121.505 85.249 120.792C84.8584 120.079 84.3359 119.493 83.6816 119.034C83.0273 118.575 82.2803 118.238 81.4404 118.023C80.6006 117.799 79.7412 117.682 78.8623 117.672H72.5195V139ZM75.2441 129.024H79.5654C80.1416 129.044 80.6787 129.142 81.1768 129.317C81.6748 129.493 82.1094 129.742 82.4805 130.064C82.8516 130.396 83.1396 130.797 83.3447 131.266C83.5596 131.734 83.6621 132.271 83.6523 132.877C83.6523 133.473 83.5352 134.005 83.3008 134.474C83.0762 134.942 82.7686 135.338 82.3779 135.66C81.9873 135.982 81.5381 136.236 81.0303 136.422C80.5225 136.598 79.9854 136.69 79.4189 136.7H75.2441V129.024ZM75.2441 126.769V119.986H78.9502C79.4775 119.996 79.9902 120.064 80.4883 120.191C80.9961 120.318 81.4453 120.514 81.8359 120.777C82.2168 121.051 82.5195 121.397 82.7441 121.817C82.9785 122.237 83.0957 122.745 83.0957 123.341C83.0957 123.897 82.9785 124.386 82.7441 124.806C82.5098 125.226 82.2021 125.577 81.8213 125.86C81.4404 126.153 81.0059 126.378 80.5176 126.534C80.0293 126.681 79.5312 126.759 79.0234 126.769H75.2441ZM101.011 139H103.472V123.15H100.747V134.518C100.601 134.859 100.415 135.177 100.19 135.47C99.9756 135.753 99.7217 135.997 99.4287 136.202C99.0771 136.456 98.6621 136.656 98.1836 136.803C97.7051 136.939 97.1631 137.008 96.5576 137.008C96.04 137.008 95.5811 136.939 95.1807 136.803C94.79 136.666 94.458 136.427 94.1846 136.085C93.9111 135.753 93.7061 135.304 93.5693 134.737C93.4326 134.171 93.3643 133.458 93.3643 132.599V123.15H90.6543V132.569C90.6543 133.751 90.7812 134.767 91.0352 135.616C91.2988 136.456 91.6699 137.149 92.1484 137.696C92.627 138.243 93.2031 138.648 93.877 138.912C94.5508 139.166 95.3027 139.293 96.1328 139.293C97.168 139.293 98.0811 139.078 98.8721 138.648C99.6631 138.209 100.322 137.599 100.85 136.817L101.011 139ZM119.116 134.796C119.116 135.05 119.067 135.289 118.97 135.514C118.872 135.738 118.73 135.943 118.545 136.129C118.242 136.432 117.822 136.671 117.285 136.847C116.748 137.013 116.118 137.096 115.396 137.096C114.937 137.096 114.473 137.047 114.004 136.949C113.535 136.852 113.11 136.686 112.729 136.451C112.339 136.217 112.012 135.909 111.748 135.528C111.494 135.147 111.348 134.679 111.309 134.122H108.599C108.599 134.796 108.75 135.445 109.053 136.07C109.365 136.695 109.814 137.242 110.4 137.711C110.977 138.189 111.685 138.575 112.524 138.868C113.364 139.151 114.321 139.293 115.396 139.293C116.333 139.293 117.197 139.181 117.988 138.956C118.779 138.731 119.458 138.414 120.024 138.004C120.591 137.594 121.03 137.101 121.343 136.524C121.665 135.948 121.826 135.309 121.826 134.605C121.826 133.951 121.685 133.375 121.401 132.877C121.128 132.379 120.728 131.939 120.2 131.559C119.673 131.188 119.023 130.87 118.252 130.606C117.48 130.333 116.606 130.094 115.63 129.889C114.888 129.742 114.272 129.591 113.784 129.435C113.306 129.278 112.925 129.103 112.642 128.907C112.349 128.712 112.144 128.492 112.026 128.248C111.909 128.004 111.851 127.726 111.851 127.413C111.851 127.11 111.924 126.817 112.07 126.534C112.217 126.251 112.437 126.002 112.729 125.787C113.013 125.572 113.369 125.401 113.799 125.274C114.238 125.147 114.746 125.084 115.322 125.084C115.879 125.084 116.377 125.162 116.816 125.318C117.266 125.475 117.646 125.68 117.959 125.934C118.271 126.188 118.516 126.48 118.691 126.812C118.867 127.135 118.955 127.467 118.955 127.809H121.665C121.665 127.115 121.514 126.471 121.211 125.875C120.918 125.27 120.498 124.742 119.951 124.293C119.404 123.844 118.74 123.492 117.959 123.238C117.178 122.984 116.299 122.857 115.322 122.857C114.414 122.857 113.579 122.979 112.817 123.224C112.065 123.468 111.416 123.8 110.869 124.22C110.322 124.64 109.897 125.133 109.595 125.699C109.292 126.256 109.141 126.856 109.141 127.501C109.141 128.155 109.287 128.731 109.58 129.229C109.873 129.718 110.288 130.143 110.825 130.504C111.353 130.875 111.987 131.192 112.729 131.456C113.481 131.72 114.312 131.944 115.22 132.13C115.962 132.276 116.582 132.442 117.08 132.628C117.578 132.804 117.979 132.999 118.281 133.214C118.584 133.429 118.799 133.668 118.926 133.932C119.053 134.186 119.116 134.474 119.116 134.796ZM127.026 123.15V125.509H132.417V136.656H127.026V139H140.298V136.656H135.127V123.15H127.026ZM132.065 118.99C132.065 119.43 132.197 119.796 132.461 120.089C132.734 120.382 133.145 120.528 133.691 120.528C134.229 120.528 134.634 120.382 134.907 120.089C135.181 119.796 135.317 119.43 135.317 118.99C135.317 118.746 135.278 118.521 135.2 118.316C135.122 118.111 135.005 117.94 134.849 117.804C134.722 117.677 134.561 117.579 134.365 117.511C134.17 117.433 133.945 117.394 133.691 117.394C133.438 117.394 133.208 117.433 133.003 117.511C132.808 117.579 132.646 117.677 132.52 117.804C132.363 117.95 132.246 118.126 132.168 118.331C132.1 118.536 132.065 118.756 132.065 118.99ZM144.619 139H147.329V127.633C147.515 127.291 147.729 126.979 147.974 126.695C148.228 126.412 148.501 126.163 148.794 125.948C149.155 125.704 149.551 125.514 149.98 125.377C150.41 125.23 150.874 125.157 151.372 125.157C151.948 125.157 152.456 125.226 152.896 125.362C153.345 125.499 153.726 125.719 154.038 126.021C154.341 126.324 154.57 126.72 154.727 127.208C154.883 127.696 154.961 128.292 154.961 128.995V139H157.671V128.937C157.671 127.882 157.539 126.974 157.275 126.212C157.021 125.44 156.655 124.806 156.177 124.308C155.698 123.81 155.117 123.443 154.434 123.209C153.76 122.975 153.008 122.857 152.178 122.857C151.562 122.867 150.977 122.96 150.42 123.136C149.873 123.302 149.365 123.541 148.896 123.854C148.584 124.059 148.286 124.303 148.003 124.586C147.729 124.859 147.476 125.162 147.241 125.494L147.051 123.15H144.619V139ZM162.637 139H165.347V127.633C165.532 127.291 165.747 126.979 165.991 126.695C166.245 126.412 166.519 126.163 166.812 125.948C167.173 125.704 167.568 125.514 167.998 125.377C168.428 125.23 168.892 125.157 169.39 125.157C169.966 125.157 170.474 125.226 170.913 125.362C171.362 125.499 171.743 125.719 172.056 126.021C172.358 126.324 172.588 126.72 172.744 127.208C172.9 127.696 172.979 128.292 172.979 128.995V139H175.688V128.937C175.688 127.882 175.557 126.974 175.293 126.212C175.039 125.44 174.673 124.806 174.194 124.308C173.716 123.81 173.135 123.443 172.451 123.209C171.777 122.975 171.025 122.857 170.195 122.857C169.58 122.867 168.994 122.96 168.438 123.136C167.891 123.302 167.383 123.541 166.914 123.854C166.602 124.059 166.304 124.303 166.021 124.586C165.747 124.859 165.493 125.162 165.259 125.494L165.068 123.15H162.637V139ZM187.656 139.293C189.199 139.293 190.493 138.985 191.538 138.37C192.593 137.745 193.384 137.032 193.911 136.231L192.256 134.942C191.758 135.587 191.133 136.104 190.381 136.495C189.629 136.886 188.77 137.081 187.803 137.081C187.07 137.081 186.401 136.944 185.796 136.671C185.19 136.397 184.673 136.021 184.243 135.543C183.823 135.094 183.491 134.576 183.247 133.99C183.013 133.404 182.861 132.726 182.793 131.954V131.852H194.116V130.636C194.116 129.532 193.975 128.507 193.691 127.56C193.418 126.612 192.998 125.787 192.432 125.084C191.865 124.391 191.152 123.849 190.293 123.458C189.443 123.058 188.447 122.857 187.305 122.857C186.396 122.857 185.508 123.043 184.639 123.414C183.779 123.785 183.013 124.317 182.339 125.011C181.655 125.714 181.108 126.573 180.698 127.589C180.288 128.595 180.083 129.737 180.083 131.017V131.632C180.083 132.735 180.269 133.756 180.64 134.693C181.011 135.631 181.528 136.441 182.192 137.125C182.856 137.809 183.652 138.341 184.58 138.722C185.518 139.103 186.543 139.293 187.656 139.293ZM187.305 125.084C187.998 125.084 188.594 125.211 189.092 125.465C189.6 125.719 190.02 126.051 190.352 126.461C190.684 126.871 190.942 127.359 191.128 127.926C191.313 128.482 191.406 129.005 191.406 129.493V129.625H182.881C182.988 128.893 183.174 128.248 183.438 127.691C183.711 127.125 184.043 126.646 184.434 126.256C184.824 125.875 185.264 125.587 185.752 125.392C186.24 125.187 186.758 125.084 187.305 125.084ZM209.204 134.796C209.204 135.05 209.155 135.289 209.058 135.514C208.96 135.738 208.818 135.943 208.633 136.129C208.33 136.432 207.91 136.671 207.373 136.847C206.836 137.013 206.206 137.096 205.483 137.096C205.024 137.096 204.561 137.047 204.092 136.949C203.623 136.852 203.198 136.686 202.817 136.451C202.427 136.217 202.1 135.909 201.836 135.528C201.582 135.147 201.436 134.679 201.396 134.122H198.687C198.687 134.796 198.838 135.445 199.141 136.07C199.453 136.695 199.902 137.242 200.488 137.711C201.064 138.189 201.772 138.575 202.612 138.868C203.452 139.151 204.409 139.293 205.483 139.293C206.421 139.293 207.285 139.181 208.076 138.956C208.867 138.731 209.546 138.414 210.112 138.004C210.679 137.594 211.118 137.101 211.431 136.524C211.753 135.948 211.914 135.309 211.914 134.605C211.914 133.951 211.772 133.375 211.489 132.877C211.216 132.379 210.815 131.939 210.288 131.559C209.761 131.188 209.111 130.87 208.34 130.606C207.568 130.333 206.694 130.094 205.718 129.889C204.976 129.742 204.36 129.591 203.872 129.435C203.394 129.278 203.013 129.103 202.729 128.907C202.437 128.712 202.231 128.492 202.114 128.248C201.997 128.004 201.938 127.726 201.938 127.413C201.938 127.11 202.012 126.817 202.158 126.534C202.305 126.251 202.524 126.002 202.817 125.787C203.101 125.572 203.457 125.401 203.887 125.274C204.326 125.147 204.834 125.084 205.41 125.084C205.967 125.084 206.465 125.162 206.904 125.318C207.354 125.475 207.734 125.68 208.047 125.934C208.359 126.188 208.604 126.48 208.779 126.812C208.955 127.135 209.043 127.467 209.043 127.809H211.753C211.753 127.115 211.602 126.471 211.299 125.875C211.006 125.27 210.586 124.742 210.039 124.293C209.492 123.844 208.828 123.492 208.047 123.238C207.266 122.984 206.387 122.857 205.41 122.857C204.502 122.857 203.667 122.979 202.905 123.224C202.153 123.468 201.504 123.8 200.957 124.22C200.41 124.64 199.985 125.133 199.683 125.699C199.38 126.256 199.229 126.856 199.229 127.501C199.229 128.155 199.375 128.731 199.668 129.229C199.961 129.718 200.376 130.143 200.913 130.504C201.44 130.875 202.075 131.192 202.817 131.456C203.569 131.72 204.399 131.944 205.308 132.13C206.05 132.276 206.67 132.442 207.168 132.628C207.666 132.804 208.066 132.999 208.369 133.214C208.672 133.429 208.887 133.668 209.014 133.932C209.141 134.186 209.204 134.474 209.204 134.796ZM234.707 117.672V120.03H239.702V136.656H234.707V139H247.598V136.656H242.485V120.03H247.598V117.672H234.707ZM252.725 139H255.435V127.633C255.62 127.291 255.835 126.979 256.079 126.695C256.333 126.412 256.606 126.163 256.899 125.948C257.261 125.704 257.656 125.514 258.086 125.377C258.516 125.23 258.979 125.157 259.478 125.157C260.054 125.157 260.562 125.226 261.001 125.362C261.45 125.499 261.831 125.719 262.144 126.021C262.446 126.324 262.676 126.72 262.832 127.208C262.988 127.696 263.066 128.292 263.066 128.995V139H265.776V128.937C265.776 127.882 265.645 126.974 265.381 126.212C265.127 125.44 264.761 124.806 264.282 124.308C263.804 123.81 263.223 123.443 262.539 123.209C261.865 122.975 261.113 122.857 260.283 122.857C259.668 122.867 259.082 122.96 258.525 123.136C257.979 123.302 257.471 123.541 257.002 123.854C256.689 124.059 256.392 124.303 256.108 124.586C255.835 124.859 255.581 125.162 255.347 125.494L255.156 123.15H252.725V139ZM277.158 119.312H274.434V123.15H270.273V125.245H274.434V133.858C274.434 134.835 274.561 135.67 274.814 136.363C275.078 137.047 275.435 137.604 275.884 138.033C276.333 138.473 276.86 138.795 277.466 139C278.081 139.195 278.74 139.293 279.443 139.293C279.863 139.293 280.283 139.273 280.703 139.234C281.133 139.195 281.538 139.137 281.919 139.059C282.3 138.99 282.651 138.907 282.974 138.81C283.296 138.702 283.569 138.58 283.794 138.443L283.413 136.524C283.247 136.563 283.032 136.612 282.769 136.671C282.515 136.72 282.241 136.769 281.948 136.817C281.646 136.866 281.338 136.91 281.025 136.949C280.713 136.979 280.41 136.993 280.117 136.993C279.717 136.993 279.336 136.944 278.975 136.847C278.623 136.749 278.311 136.578 278.037 136.334C277.764 136.1 277.549 135.782 277.393 135.382C277.236 134.981 277.158 134.474 277.158 133.858V125.245H283.193V123.15H277.158V119.312ZM295.762 139.293C297.305 139.293 298.599 138.985 299.644 138.37C300.698 137.745 301.489 137.032 302.017 136.231L300.361 134.942C299.863 135.587 299.238 136.104 298.486 136.495C297.734 136.886 296.875 137.081 295.908 137.081C295.176 137.081 294.507 136.944 293.901 136.671C293.296 136.397 292.778 136.021 292.349 135.543C291.929 135.094 291.597 134.576 291.353 133.99C291.118 133.404 290.967 132.726 290.898 131.954V131.852H302.222V130.636C302.222 129.532 302.08 128.507 301.797 127.56C301.523 126.612 301.104 125.787 300.537 125.084C299.971 124.391 299.258 123.849 298.398 123.458C297.549 123.058 296.553 122.857 295.41 122.857C294.502 122.857 293.613 123.043 292.744 123.414C291.885 123.785 291.118 124.317 290.444 125.011C289.761 125.714 289.214 126.573 288.804 127.589C288.394 128.595 288.188 129.737 288.188 131.017V131.632C288.188 132.735 288.374 133.756 288.745 134.693C289.116 135.631 289.634 136.441 290.298 137.125C290.962 137.809 291.758 138.341 292.686 138.722C293.623 139.103 294.648 139.293 295.762 139.293ZM295.41 125.084C296.104 125.084 296.699 125.211 297.197 125.465C297.705 125.719 298.125 126.051 298.457 126.461C298.789 126.871 299.048 127.359 299.233 127.926C299.419 128.482 299.512 129.005 299.512 129.493V129.625H290.986C291.094 128.893 291.279 128.248 291.543 127.691C291.816 127.125 292.148 126.646 292.539 126.256C292.93 125.875 293.369 125.587 293.857 125.392C294.346 125.187 294.863 125.084 295.41 125.084ZM307.202 116.5V118.858H312.593V136.656H307.202V139H320.474V136.656H315.303V116.5H307.202ZM325.22 116.5V118.858H330.61V136.656H325.22V139H338.491V136.656H333.32V116.5H325.22ZM343.237 123.15V125.509H348.628V136.656H343.237V139H356.509V136.656H351.338V123.15H343.237ZM348.276 118.99C348.276 119.43 348.408 119.796 348.672 120.089C348.945 120.382 349.355 120.528 349.902 120.528C350.439 120.528 350.845 120.382 351.118 120.089C351.392 119.796 351.528 119.43 351.528 118.99C351.528 118.746 351.489 118.521 351.411 118.316C351.333 118.111 351.216 117.94 351.06 117.804C350.933 117.677 350.771 117.579 350.576 117.511C350.381 117.433 350.156 117.394 349.902 117.394C349.648 117.394 349.419 117.433 349.214 117.511C349.019 117.579 348.857 117.677 348.73 117.804C348.574 117.95 348.457 118.126 348.379 118.331C348.311 118.536 348.276 118.756 348.276 118.99ZM360.332 130.943V131.251C360.332 132.384 360.479 133.443 360.771 134.43C361.064 135.406 361.484 136.256 362.031 136.979C362.568 137.701 363.228 138.268 364.009 138.678C364.79 139.088 365.664 139.293 366.631 139.293C367.207 139.293 367.744 139.229 368.242 139.103C368.74 138.985 369.194 138.814 369.604 138.59C369.868 138.443 370.112 138.272 370.337 138.077C370.571 137.882 370.791 137.667 370.996 137.433V138.795C370.996 139.479 370.898 140.084 370.703 140.611C370.508 141.139 370.229 141.578 369.868 141.93C369.497 142.291 369.053 142.564 368.535 142.75C368.018 142.936 367.437 143.028 366.792 143.028C366.431 143.028 366.069 142.989 365.708 142.911C365.347 142.843 364.985 142.726 364.624 142.56C364.263 142.394 363.906 142.169 363.555 141.886C363.203 141.612 362.861 141.275 362.529 140.875L361.123 142.501C361.484 143.019 361.914 143.453 362.412 143.805C362.92 144.156 363.447 144.435 363.994 144.64C364.531 144.854 365.063 145.006 365.591 145.094C366.118 145.191 366.587 145.24 366.997 145.24C367.993 145.24 368.901 145.094 369.722 144.801C370.542 144.508 371.25 144.078 371.846 143.512C372.432 142.945 372.886 142.257 373.208 141.446C373.54 140.636 373.706 139.708 373.706 138.663V123.15H371.245L371.113 124.879C370.928 124.645 370.728 124.43 370.513 124.234C370.308 124.039 370.088 123.868 369.854 123.722C369.424 123.438 368.94 123.224 368.403 123.077C367.876 122.931 367.295 122.857 366.66 122.857C365.674 122.857 364.79 123.058 364.009 123.458C363.228 123.858 362.563 124.415 362.017 125.128C361.47 125.841 361.05 126.695 360.757 127.691C360.474 128.678 360.332 129.762 360.332 130.943ZM363.042 131.251V130.943C363.042 130.172 363.12 129.439 363.276 128.746C363.442 128.043 363.701 127.423 364.053 126.886C364.395 126.358 364.834 125.938 365.371 125.626C365.918 125.313 366.572 125.157 367.334 125.157C367.783 125.157 368.193 125.216 368.564 125.333C368.936 125.44 369.272 125.592 369.575 125.787C369.878 125.992 370.146 126.231 370.381 126.505C370.615 126.778 370.82 127.081 370.996 127.413V134.679C370.82 135.021 370.615 135.333 370.381 135.616C370.146 135.899 369.883 136.144 369.59 136.349C369.287 136.554 368.945 136.715 368.564 136.832C368.193 136.939 367.773 136.993 367.305 136.993C366.553 136.993 365.908 136.842 365.371 136.539C364.834 136.227 364.395 135.807 364.053 135.279C363.701 134.752 363.442 134.142 363.276 133.448C363.12 132.755 363.042 132.022 363.042 131.251ZM385.85 139.293C387.393 139.293 388.687 138.985 389.731 138.37C390.786 137.745 391.577 137.032 392.104 136.231L390.449 134.942C389.951 135.587 389.326 136.104 388.574 136.495C387.822 136.886 386.963 137.081 385.996 137.081C385.264 137.081 384.595 136.944 383.989 136.671C383.384 136.397 382.866 136.021 382.437 135.543C382.017 135.094 381.685 134.576 381.44 133.99C381.206 133.404 381.055 132.726 380.986 131.954V131.852H392.31V130.636C392.31 129.532 392.168 128.507 391.885 127.56C391.611 126.612 391.191 125.787 390.625 125.084C390.059 124.391 389.346 123.849 388.486 123.458C387.637 123.058 386.641 122.857 385.498 122.857C384.59 122.857 383.701 123.043 382.832 123.414C381.973 123.785 381.206 124.317 380.532 125.011C379.849 125.714 379.302 126.573 378.892 127.589C378.481 128.595 378.276 129.737 378.276 131.017V131.632C378.276 132.735 378.462 133.756 378.833 134.693C379.204 135.631 379.722 136.441 380.386 137.125C381.05 137.809 381.846 138.341 382.773 138.722C383.711 139.103 384.736 139.293 385.85 139.293ZM385.498 125.084C386.191 125.084 386.787 125.211 387.285 125.465C387.793 125.719 388.213 126.051 388.545 126.461C388.877 126.871 389.136 127.359 389.321 127.926C389.507 128.482 389.6 129.005 389.6 129.493V129.625H381.074C381.182 128.893 381.367 128.248 381.631 127.691C381.904 127.125 382.236 126.646 382.627 126.256C383.018 125.875 383.457 125.587 383.945 125.392C384.434 125.187 384.951 125.084 385.498 125.084ZM396.865 139H399.575V127.633C399.761 127.291 399.976 126.979 400.22 126.695C400.474 126.412 400.747 126.163 401.04 125.948C401.401 125.704 401.797 125.514 402.227 125.377C402.656 125.23 403.12 125.157 403.618 125.157C404.194 125.157 404.702 125.226 405.142 125.362C405.591 125.499 405.972 125.719 406.284 126.021C406.587 126.324 406.816 126.72 406.973 127.208C407.129 127.696 407.207 128.292 407.207 128.995V139H409.917V128.937C409.917 127.882 409.785 126.974 409.521 126.212C409.268 125.44 408.901 124.806 408.423 124.308C407.944 123.81 407.363 123.443 406.68 123.209C406.006 122.975 405.254 122.857 404.424 122.857C403.809 122.867 403.223 122.96 402.666 123.136C402.119 123.302 401.611 123.541 401.143 123.854C400.83 124.059 400.532 124.303 400.249 124.586C399.976 124.859 399.722 125.162 399.487 125.494L399.297 123.15H396.865V139ZM421.636 137.096C420.786 137.096 420.073 136.93 419.497 136.598C418.931 136.256 418.477 135.812 418.135 135.265C417.783 134.728 417.529 134.122 417.373 133.448C417.227 132.765 417.153 132.076 417.153 131.383V130.768C417.153 130.084 417.227 129.405 417.373 128.731C417.529 128.058 417.783 127.447 418.135 126.9C418.486 126.363 418.945 125.929 419.512 125.597C420.088 125.255 420.796 125.084 421.636 125.084C422.183 125.084 422.69 125.177 423.159 125.362C423.638 125.548 424.048 125.802 424.39 126.124C424.731 126.446 425 126.822 425.195 127.252C425.4 127.672 425.508 128.121 425.518 128.6H428.081C428.081 127.799 427.92 127.047 427.598 126.344C427.275 125.641 426.831 125.03 426.265 124.513C425.688 124.005 425.005 123.604 424.214 123.312C423.433 123.009 422.573 122.857 421.636 122.857C420.435 122.857 419.385 123.072 418.486 123.502C417.588 123.932 416.841 124.508 416.245 125.23C415.64 125.963 415.186 126.808 414.883 127.765C414.58 128.722 414.429 129.723 414.429 130.768V131.383C414.429 132.438 414.58 133.443 414.883 134.4C415.186 135.348 415.64 136.183 416.245 136.905C416.841 137.638 417.588 138.219 418.486 138.648C419.385 139.078 420.435 139.293 421.636 139.293C422.476 139.293 423.281 139.151 424.053 138.868C424.824 138.575 425.508 138.185 426.104 137.696C426.699 137.218 427.173 136.661 427.524 136.026C427.886 135.382 428.071 134.708 428.081 134.005H425.518C425.508 134.444 425.391 134.854 425.166 135.235C424.951 135.606 424.663 135.929 424.302 136.202C423.94 136.485 423.525 136.705 423.057 136.861C422.598 137.018 422.124 137.096 421.636 137.096ZM439.902 139.293C441.445 139.293 442.739 138.985 443.784 138.37C444.839 137.745 445.63 137.032 446.157 136.231L444.502 134.942C444.004 135.587 443.379 136.104 442.627 136.495C441.875 136.886 441.016 137.081 440.049 137.081C439.316 137.081 438.647 136.944 438.042 136.671C437.437 136.397 436.919 136.021 436.489 135.543C436.069 135.094 435.737 134.576 435.493 133.99C435.259 133.404 435.107 132.726 435.039 131.954V131.852H446.362V130.636C446.362 129.532 446.221 128.507 445.938 127.56C445.664 126.612 445.244 125.787 444.678 125.084C444.111 124.391 443.398 123.849 442.539 123.458C441.689 123.058 440.693 122.857 439.551 122.857C438.643 122.857 437.754 123.043 436.885 123.414C436.025 123.785 435.259 124.317 434.585 125.011C433.901 125.714 433.354 126.573 432.944 127.589C432.534 128.595 432.329 129.737 432.329 131.017V131.632C432.329 132.735 432.515 133.756 432.886 134.693C433.257 135.631 433.774 136.441 434.438 137.125C435.103 137.809 435.898 138.341 436.826 138.722C437.764 139.103 438.789 139.293 439.902 139.293ZM439.551 125.084C440.244 125.084 440.84 125.211 441.338 125.465C441.846 125.719 442.266 126.051 442.598 126.461C442.93 126.871 443.188 127.359 443.374 127.926C443.56 128.482 443.652 129.005 443.652 129.493V129.625H435.127C435.234 128.893 435.42 128.248 435.684 127.691C435.957 127.125 436.289 126.646 436.68 126.256C437.07 125.875 437.51 125.587 437.998 125.392C438.486 125.187 439.004 125.084 439.551 125.084Z" fill="white"/>
<path d="M228.609 200.541L228.076 203.928C227.822 204.236 227.506 204.479 227.127 204.654C226.752 204.826 226.355 204.947 225.938 205.018C225.52 205.088 225.121 205.119 224.742 205.111C224.16 205.104 223.664 204.986 223.254 204.76C222.848 204.529 222.523 204.221 222.281 203.834C222.043 203.447 221.883 203.012 221.801 202.527C221.719 202.039 221.711 201.531 221.777 201.004L221.854 200.471C221.928 199.924 222.07 199.402 222.281 198.906C222.492 198.406 222.768 197.963 223.107 197.576C223.447 197.186 223.854 196.881 224.326 196.662C224.799 196.439 225.336 196.334 225.938 196.346C226.539 196.357 227.051 196.475 227.473 196.697C227.895 196.92 228.223 197.24 228.457 197.658C228.695 198.072 228.834 198.576 228.873 199.17L227.221 199.164C227.201 198.883 227.145 198.635 227.051 198.42C226.957 198.205 226.816 198.037 226.629 197.916C226.441 197.795 226.195 197.729 225.891 197.717C225.516 197.701 225.193 197.775 224.924 197.939C224.654 198.104 224.428 198.324 224.244 198.602C224.064 198.875 223.922 199.176 223.816 199.504C223.711 199.828 223.637 200.146 223.594 200.459L223.518 201.01C223.482 201.295 223.465 201.596 223.465 201.912C223.469 202.225 223.514 202.52 223.6 202.797C223.689 203.07 223.838 203.295 224.045 203.471C224.252 203.643 224.541 203.732 224.912 203.74C225.092 203.744 225.268 203.732 225.439 203.705C225.611 203.678 225.777 203.633 225.938 203.57C226.098 203.504 226.248 203.418 226.389 203.312L226.682 201.795H225.123L225.34 200.541H228.609ZM232.078 205.117C231.645 205.109 231.254 205.027 230.906 204.871C230.559 204.711 230.268 204.492 230.033 204.215C229.803 203.938 229.633 203.615 229.523 203.248C229.414 202.881 229.375 202.486 229.406 202.064L229.43 201.824C229.477 201.383 229.584 200.963 229.752 200.564C229.92 200.166 230.145 199.814 230.426 199.51C230.707 199.201 231.039 198.961 231.422 198.789C231.809 198.613 232.238 198.531 232.711 198.543C233.152 198.551 233.529 198.641 233.842 198.812C234.154 198.984 234.406 199.215 234.598 199.504C234.789 199.793 234.92 200.123 234.99 200.494C235.061 200.861 235.074 201.246 235.031 201.648L234.938 202.352H230.039L230.221 201.227L233.455 201.232L233.484 201.086C233.516 200.871 233.506 200.672 233.455 200.488C233.404 200.301 233.309 200.15 233.168 200.037C233.027 199.924 232.84 199.863 232.605 199.855C232.336 199.848 232.109 199.904 231.926 200.025C231.742 200.146 231.592 200.307 231.475 200.506C231.357 200.705 231.268 200.922 231.205 201.156C231.143 201.387 231.098 201.609 231.07 201.824L231.047 202.059C231.027 202.266 231.033 202.473 231.064 202.68C231.096 202.883 231.156 203.066 231.246 203.23C231.34 203.395 231.467 203.527 231.627 203.629C231.791 203.73 231.996 203.785 232.242 203.793C232.555 203.801 232.842 203.74 233.104 203.611C233.369 203.479 233.607 203.303 233.818 203.084L234.557 203.975C234.381 204.24 234.156 204.459 233.883 204.631C233.613 204.799 233.322 204.922 233.01 205C232.697 205.082 232.387 205.121 232.078 205.117ZM239.068 203.213C239.1 203.025 239.053 202.881 238.928 202.779C238.803 202.674 238.648 202.594 238.465 202.539C238.285 202.484 238.129 202.441 237.996 202.41C237.762 202.348 237.525 202.27 237.287 202.176C237.053 202.078 236.84 201.957 236.648 201.812C236.457 201.668 236.305 201.492 236.191 201.285C236.078 201.074 236.027 200.826 236.039 200.541C236.051 200.201 236.137 199.906 236.297 199.656C236.461 199.402 236.672 199.193 236.93 199.029C237.188 198.861 237.469 198.736 237.773 198.654C238.078 198.572 238.381 198.535 238.682 198.543C239.104 198.547 239.494 198.625 239.854 198.777C240.217 198.93 240.51 199.156 240.732 199.457C240.959 199.758 241.072 200.133 241.072 200.582L239.438 200.576C239.441 200.404 239.414 200.254 239.355 200.125C239.297 199.996 239.207 199.896 239.086 199.826C238.965 199.756 238.811 199.721 238.623 199.721C238.475 199.721 238.326 199.75 238.178 199.809C238.033 199.863 237.908 199.945 237.803 200.055C237.697 200.164 237.631 200.299 237.604 200.459C237.58 200.592 237.6 200.701 237.662 200.787C237.725 200.873 237.809 200.943 237.914 200.998C238.02 201.049 238.131 201.092 238.248 201.127C238.365 201.158 238.471 201.184 238.564 201.203C238.908 201.293 239.244 201.408 239.572 201.549C239.9 201.689 240.168 201.887 240.375 202.141C240.582 202.391 240.678 202.725 240.662 203.143C240.65 203.498 240.557 203.803 240.381 204.057C240.205 204.307 239.979 204.512 239.701 204.672C239.428 204.828 239.131 204.941 238.811 205.012C238.494 205.086 238.184 205.121 237.879 205.117C237.453 205.109 237.053 205.023 236.678 204.859C236.307 204.695 236.006 204.457 235.775 204.145C235.545 203.828 235.428 203.441 235.424 202.984L236.971 202.99C236.975 203.193 237.016 203.365 237.094 203.506C237.172 203.646 237.283 203.754 237.428 203.828C237.576 203.898 237.752 203.934 237.955 203.934C238.115 203.938 238.273 203.916 238.43 203.869C238.59 203.822 238.729 203.746 238.846 203.641C238.963 203.531 239.037 203.389 239.068 203.213ZM245.508 198.66L245.297 199.855H241.705L241.916 198.66H245.508ZM243.076 197.096H244.723L243.691 203.102C243.676 203.238 243.676 203.355 243.691 203.453C243.711 203.547 243.756 203.619 243.826 203.67C243.896 203.721 244.006 203.75 244.154 203.758C244.236 203.762 244.318 203.76 244.4 203.752C244.482 203.74 244.566 203.729 244.652 203.717L244.535 204.977C244.379 205.023 244.221 205.057 244.061 205.076C243.904 205.1 243.744 205.111 243.58 205.111C243.205 205.104 242.896 205.021 242.654 204.865C242.416 204.709 242.244 204.494 242.139 204.221C242.037 203.943 242.004 203.623 242.039 203.26L243.076 197.096ZM248.906 203.57L249.352 200.729C249.371 200.557 249.363 200.396 249.328 200.248C249.293 200.1 249.221 199.982 249.111 199.896C249.006 199.807 248.855 199.758 248.66 199.75C248.484 199.746 248.326 199.777 248.186 199.844C248.049 199.906 247.936 199.998 247.846 200.119C247.756 200.236 247.693 200.377 247.658 200.541L246.006 200.553C246.025 200.201 246.123 199.898 246.299 199.645C246.479 199.387 246.705 199.176 246.979 199.012C247.252 198.848 247.549 198.727 247.869 198.648C248.193 198.57 248.51 198.535 248.818 198.543C249.26 198.551 249.652 198.643 249.996 198.818C250.344 198.994 250.609 199.246 250.793 199.574C250.98 199.898 251.051 200.293 251.004 200.758L250.564 203.477C250.529 203.703 250.502 203.941 250.482 204.191C250.463 204.438 250.498 204.672 250.588 204.895L250.576 205L248.959 205.006C248.885 204.775 248.848 204.539 248.848 204.297C248.852 204.051 248.871 203.809 248.906 203.57ZM249.539 201.139L249.381 202.094L248.543 202.088C248.375 202.092 248.207 202.115 248.039 202.158C247.875 202.197 247.723 202.26 247.582 202.346C247.441 202.428 247.324 202.535 247.23 202.668C247.141 202.801 247.084 202.963 247.061 203.154C247.041 203.291 247.055 203.414 247.102 203.523C247.148 203.629 247.221 203.713 247.318 203.775C247.42 203.838 247.541 203.871 247.682 203.875C247.881 203.879 248.076 203.842 248.268 203.764C248.459 203.682 248.625 203.566 248.766 203.418C248.906 203.27 249.004 203.098 249.059 202.902L249.41 203.635C249.316 203.854 249.197 204.055 249.053 204.238C248.912 204.422 248.75 204.582 248.566 204.719C248.383 204.852 248.182 204.953 247.963 205.023C247.744 205.098 247.51 205.133 247.26 205.129C246.912 205.121 246.592 205.039 246.299 204.883C246.01 204.723 245.779 204.506 245.607 204.232C245.439 203.955 245.363 203.633 245.379 203.266C245.395 202.852 245.498 202.508 245.689 202.234C245.881 201.957 246.127 201.738 246.428 201.578C246.732 201.418 247.062 201.305 247.418 201.238C247.777 201.168 248.133 201.133 248.484 201.133L249.539 201.139ZM250.5 196.029L251.443 196.088C251.428 196.35 251.365 196.602 251.256 196.844C251.15 197.082 250.998 197.277 250.799 197.43C250.6 197.582 250.354 197.656 250.061 197.652C249.916 197.652 249.779 197.625 249.65 197.57C249.525 197.512 249.402 197.447 249.281 197.377C249.164 197.303 249.043 197.24 248.918 197.189C248.797 197.135 248.668 197.109 248.531 197.113C248.355 197.121 248.225 197.184 248.139 197.301C248.057 197.414 247.994 197.543 247.951 197.688L246.973 197.641C246.992 197.383 247.057 197.135 247.166 196.896C247.279 196.654 247.436 196.455 247.635 196.299C247.834 196.143 248.078 196.066 248.367 196.07C248.508 196.074 248.641 196.105 248.766 196.164C248.891 196.219 249.014 196.281 249.135 196.352C249.256 196.422 249.379 196.484 249.504 196.539C249.629 196.59 249.762 196.611 249.902 196.604C250.074 196.6 250.205 196.541 250.295 196.428C250.385 196.314 250.453 196.182 250.5 196.029ZM251.842 201.93L251.859 201.807C251.906 201.357 252.014 200.936 252.182 200.541C252.354 200.143 252.58 199.793 252.861 199.492C253.146 199.188 253.48 198.951 253.863 198.783C254.25 198.611 254.684 198.531 255.164 198.543C255.621 198.551 256.016 198.643 256.348 198.818C256.68 198.994 256.951 199.23 257.162 199.527C257.377 199.824 257.527 200.164 257.613 200.547C257.703 200.93 257.729 201.334 257.689 201.76L257.678 201.889C257.627 202.334 257.514 202.754 257.338 203.148C257.166 203.539 256.938 203.885 256.652 204.186C256.371 204.482 256.037 204.715 255.65 204.883C255.264 205.051 254.834 205.129 254.361 205.117C253.912 205.109 253.52 205.02 253.184 204.848C252.848 204.672 252.574 204.438 252.363 204.145C252.152 203.848 252.004 203.51 251.918 203.131C251.832 202.752 251.807 202.352 251.842 201.93ZM253.506 201.807L253.494 201.936C253.475 202.123 253.469 202.324 253.477 202.539C253.484 202.75 253.518 202.951 253.576 203.143C253.639 203.334 253.74 203.49 253.881 203.611C254.021 203.732 254.215 203.797 254.461 203.805C254.723 203.812 254.947 203.76 255.135 203.646C255.322 203.533 255.477 203.381 255.598 203.189C255.719 202.994 255.814 202.783 255.885 202.557C255.955 202.326 256.002 202.102 256.025 201.883L256.037 201.76C256.053 201.572 256.057 201.371 256.049 201.156C256.045 200.938 256.012 200.732 255.949 200.541C255.887 200.346 255.785 200.186 255.645 200.061C255.504 199.936 255.311 199.869 255.064 199.861C254.803 199.85 254.578 199.904 254.391 200.025C254.203 200.143 254.049 200.299 253.928 200.494C253.807 200.689 253.711 200.902 253.641 201.133C253.574 201.363 253.529 201.588 253.506 201.807ZM264.973 203.523L266.273 196H267.932L266.373 205H264.891L264.973 203.523ZM261.363 201.953L261.375 201.824C261.426 201.438 261.516 201.047 261.645 200.652C261.777 200.258 261.957 199.898 262.184 199.574C262.414 199.25 262.697 198.992 263.033 198.801C263.369 198.609 263.768 198.521 264.229 198.537C264.623 198.553 264.949 198.664 265.207 198.871C265.465 199.074 265.664 199.338 265.805 199.662C265.949 199.982 266.047 200.324 266.098 200.688C266.152 201.047 266.174 201.389 266.162 201.713L266.133 201.994C266.07 202.342 265.965 202.701 265.816 203.072C265.672 203.439 265.482 203.781 265.248 204.098C265.018 204.41 264.742 204.662 264.422 204.854C264.105 205.045 263.744 205.135 263.338 205.123C262.912 205.111 262.562 205.008 262.289 204.812C262.02 204.613 261.811 204.357 261.662 204.045C261.514 203.732 261.418 203.393 261.375 203.025C261.332 202.658 261.328 202.301 261.363 201.953ZM263.033 201.818L263.021 201.941C263.006 202.109 262.996 202.299 262.992 202.51C262.992 202.717 263.014 202.918 263.057 203.113C263.104 203.305 263.188 203.465 263.309 203.594C263.434 203.719 263.613 203.787 263.848 203.799C264.145 203.811 264.4 203.742 264.615 203.594C264.83 203.441 265.002 203.246 265.131 203.008C265.264 202.77 265.352 202.52 265.395 202.258L265.506 201.479C265.525 201.299 265.525 201.117 265.506 200.934C265.486 200.75 265.441 200.578 265.371 200.418C265.305 200.258 265.203 200.127 265.066 200.025C264.934 199.924 264.76 199.871 264.545 199.867C264.283 199.855 264.061 199.912 263.877 200.037C263.697 200.158 263.551 200.318 263.438 200.518C263.324 200.713 263.234 200.926 263.168 201.156C263.105 201.387 263.061 201.607 263.033 201.818ZM270.609 205.117C270.176 205.109 269.785 205.027 269.438 204.871C269.09 204.711 268.799 204.492 268.564 204.215C268.334 203.938 268.164 203.615 268.055 203.248C267.945 202.881 267.906 202.486 267.938 202.064L267.961 201.824C268.008 201.383 268.115 200.963 268.283 200.564C268.451 200.166 268.676 199.814 268.957 199.51C269.238 199.201 269.57 198.961 269.953 198.789C270.34 198.613 270.77 198.531 271.242 198.543C271.684 198.551 272.061 198.641 272.373 198.812C272.686 198.984 272.938 199.215 273.129 199.504C273.32 199.793 273.451 200.123 273.521 200.494C273.592 200.861 273.605 201.246 273.562 201.648L273.469 202.352H268.57L268.752 201.227L271.986 201.232L272.016 201.086C272.047 200.871 272.037 200.672 271.986 200.488C271.936 200.301 271.84 200.15 271.699 200.037C271.559 199.924 271.371 199.863 271.137 199.855C270.867 199.848 270.641 199.904 270.457 200.025C270.273 200.146 270.123 200.307 270.006 200.506C269.889 200.705 269.799 200.922 269.736 201.156C269.674 201.387 269.629 201.609 269.602 201.824L269.578 202.059C269.559 202.266 269.564 202.473 269.596 202.68C269.627 202.883 269.688 203.066 269.777 203.23C269.871 203.395 269.998 203.527 270.158 203.629C270.322 203.73 270.527 203.785 270.773 203.793C271.086 203.801 271.373 203.74 271.635 203.611C271.9 203.479 272.139 203.303 272.35 203.084L273.088 203.975C272.912 204.24 272.688 204.459 272.414 204.631C272.145 204.799 271.854 204.922 271.541 205C271.229 205.082 270.918 205.121 270.609 205.117ZM278.455 196.469L281.461 196.475C281.98 196.482 282.451 196.578 282.873 196.762C283.299 196.945 283.629 197.221 283.863 197.588C284.102 197.955 284.201 198.422 284.162 198.988C284.123 199.453 284.01 199.846 283.822 200.166C283.639 200.486 283.391 200.758 283.078 200.98C282.77 201.203 282.414 201.395 282.012 201.555L281.414 201.842H278.637L278.871 200.471L280.781 200.482C281.066 200.479 281.326 200.424 281.561 200.318C281.795 200.213 281.988 200.061 282.141 199.861C282.297 199.658 282.395 199.412 282.434 199.123C282.469 198.869 282.451 198.648 282.381 198.461C282.314 198.273 282.199 198.127 282.035 198.021C281.871 197.916 281.662 197.859 281.408 197.852L279.938 197.846L278.695 205H276.979L278.455 196.469ZM281.648 205L280.418 201.197L282.146 201.186L283.477 204.906V205H281.648ZM287.32 205.117C286.887 205.109 286.496 205.027 286.148 204.871C285.801 204.711 285.51 204.492 285.275 204.215C285.045 203.938 284.875 203.615 284.766 203.248C284.656 202.881 284.617 202.486 284.648 202.064L284.672 201.824C284.719 201.383 284.826 200.963 284.994 200.564C285.162 200.166 285.387 199.814 285.668 199.51C285.949 199.201 286.281 198.961 286.664 198.789C287.051 198.613 287.48 198.531 287.953 198.543C288.395 198.551 288.771 198.641 289.084 198.812C289.396 198.984 289.648 199.215 289.84 199.504C290.031 199.793 290.162 200.123 290.232 200.494C290.303 200.861 290.316 201.246 290.273 201.648L290.18 202.352H285.281L285.463 201.227L288.697 201.232L288.727 201.086C288.758 200.871 288.748 200.672 288.697 200.488C288.646 200.301 288.551 200.15 288.41 200.037C288.27 199.924 288.082 199.863 287.848 199.855C287.578 199.848 287.352 199.904 287.168 200.025C286.984 200.146 286.834 200.307 286.717 200.506C286.6 200.705 286.51 200.922 286.447 201.156C286.385 201.387 286.34 201.609 286.312 201.824L286.289 202.059C286.27 202.266 286.275 202.473 286.307 202.68C286.338 202.883 286.398 203.066 286.488 203.23C286.582 203.395 286.709 203.527 286.869 203.629C287.033 203.73 287.238 203.785 287.484 203.793C287.797 203.801 288.084 203.74 288.346 203.611C288.611 203.479 288.85 203.303 289.061 203.084L289.799 203.975C289.623 204.24 289.398 204.459 289.125 204.631C288.855 204.799 288.564 204.922 288.252 205C287.939 205.082 287.629 205.121 287.32 205.117ZM293.414 203.805C293.621 203.809 293.805 203.77 293.965 203.688C294.129 203.605 294.264 203.49 294.369 203.342C294.475 203.193 294.545 203.021 294.58 202.826L296.133 202.82C296.098 203.293 295.945 203.703 295.676 204.051C295.41 204.398 295.072 204.666 294.662 204.854C294.256 205.041 293.824 205.129 293.367 205.117C292.91 205.109 292.518 205.018 292.189 204.842C291.865 204.666 291.604 204.432 291.404 204.139C291.205 203.842 291.064 203.504 290.982 203.125C290.904 202.746 290.885 202.348 290.924 201.93L290.941 201.754C290.988 201.316 291.094 200.902 291.258 200.512C291.422 200.117 291.641 199.771 291.914 199.475C292.191 199.174 292.518 198.941 292.893 198.777C293.268 198.609 293.691 198.531 294.164 198.543C294.652 198.551 295.07 198.662 295.418 198.877C295.766 199.088 296.029 199.377 296.209 199.744C296.393 200.111 296.48 200.533 296.473 201.01L294.926 201.004C294.93 200.812 294.904 200.631 294.85 200.459C294.795 200.283 294.701 200.143 294.568 200.037C294.439 199.928 294.264 199.867 294.041 199.855C293.779 199.848 293.561 199.902 293.385 200.02C293.209 200.133 293.066 200.287 292.957 200.482C292.848 200.674 292.764 200.883 292.705 201.109C292.646 201.332 292.605 201.549 292.582 201.76L292.57 201.93C292.551 202.105 292.539 202.301 292.535 202.516C292.531 202.727 292.553 202.93 292.6 203.125C292.646 203.316 292.732 203.477 292.857 203.605C292.986 203.73 293.172 203.797 293.414 203.805ZM296.93 204.215C296.926 203.949 297.014 203.73 297.193 203.559C297.377 203.387 297.6 203.301 297.861 203.301C298.111 203.297 298.326 203.375 298.506 203.535C298.689 203.691 298.783 203.898 298.787 204.156C298.791 204.422 298.701 204.641 298.518 204.812C298.338 204.984 298.117 205.07 297.855 205.07C297.605 205.074 297.389 204.998 297.205 204.842C297.025 204.682 296.934 204.473 296.93 204.215ZM309.545 199.943L309.305 201.314H304.975L305.215 199.943H309.545ZM306.334 196.469L304.852 205H303.135L304.611 196.469H306.334ZM311.361 196.469L309.879 205H308.174L309.65 196.469H311.361ZM315.176 203.395L315.996 198.66H317.648L316.547 205H315L315.176 203.395ZM315.551 202.176L316.025 202.164C315.982 202.535 315.9 202.898 315.779 203.254C315.658 203.609 315.492 203.93 315.281 204.215C315.07 204.5 314.809 204.725 314.496 204.889C314.184 205.053 313.814 205.131 313.389 205.123C313.041 205.115 312.748 205.049 312.51 204.924C312.271 204.795 312.082 204.623 311.941 204.408C311.801 204.189 311.705 203.939 311.654 203.658C311.607 203.377 311.6 203.076 311.631 202.756L312.316 198.66H313.963L313.271 202.779C313.26 202.912 313.26 203.039 313.271 203.16C313.283 203.277 313.314 203.383 313.365 203.477C313.416 203.57 313.488 203.646 313.582 203.705C313.676 203.76 313.801 203.789 313.957 203.793C314.289 203.805 314.564 203.738 314.783 203.594C315.002 203.445 315.172 203.246 315.293 202.996C315.418 202.746 315.504 202.473 315.551 202.176ZM320.285 200.066L319.436 205H317.783L318.885 198.66H320.426L320.285 200.066ZM319.811 201.607L319.371 201.613C319.418 201.23 319.504 200.854 319.629 200.482C319.758 200.111 319.934 199.777 320.156 199.48C320.383 199.184 320.66 198.949 320.988 198.777C321.316 198.605 321.699 198.525 322.137 198.537C322.461 198.545 322.73 198.611 322.945 198.736C323.16 198.861 323.33 199.027 323.455 199.234C323.58 199.441 323.662 199.678 323.701 199.943C323.744 200.209 323.752 200.484 323.725 200.77L323.021 205H321.375L322.049 200.951C322.072 200.756 322.07 200.576 322.043 200.412C322.016 200.248 321.947 200.117 321.838 200.02C321.729 199.918 321.562 199.863 321.34 199.855C321.098 199.848 320.887 199.896 320.707 200.002C320.527 200.104 320.377 200.24 320.256 200.412C320.139 200.584 320.043 200.775 319.969 200.986C319.895 201.193 319.842 201.4 319.811 201.607ZM323.508 201.414L322.916 201.496C322.959 201.121 323.045 200.758 323.174 200.406C323.303 200.051 323.479 199.73 323.701 199.445C323.924 199.16 324.195 198.936 324.516 198.771C324.836 198.607 325.207 198.529 325.629 198.537C325.977 198.549 326.266 198.621 326.496 198.754C326.727 198.887 326.904 199.066 327.029 199.293C327.158 199.52 327.242 199.775 327.281 200.061C327.32 200.342 327.324 200.639 327.293 200.951L326.613 205H324.961L325.641 200.945C325.664 200.75 325.662 200.572 325.635 200.412C325.607 200.248 325.539 200.117 325.43 200.02C325.324 199.918 325.16 199.865 324.938 199.861C324.715 199.854 324.52 199.895 324.352 199.984C324.188 200.07 324.049 200.189 323.936 200.342C323.822 200.49 323.73 200.658 323.66 200.846C323.59 201.033 323.539 201.223 323.508 201.414Z" fill="white"/>
<path d="M258.504 215.766L260.492 211.312H261.797L258.984 217H258.121L258.504 215.766ZM258 211.312L258.598 215.867L258.609 217H257.785L256.766 211.312H258ZM263.102 217.078C262.812 217.073 262.552 217.018 262.32 216.914C262.089 216.807 261.895 216.661 261.738 216.477C261.585 216.292 261.471 216.077 261.398 215.832C261.326 215.587 261.299 215.324 261.32 215.043L261.336 214.883C261.367 214.589 261.439 214.309 261.551 214.043C261.663 213.777 261.812 213.543 262 213.34C262.188 213.134 262.409 212.974 262.664 212.859C262.922 212.742 263.208 212.688 263.523 212.695C263.818 212.701 264.069 212.76 264.277 212.875C264.486 212.99 264.654 213.143 264.781 213.336C264.909 213.529 264.996 213.749 265.043 213.996C265.09 214.241 265.099 214.497 265.07 214.766L265.008 215.234H261.742L261.863 214.484L264.02 214.488L264.039 214.391C264.06 214.247 264.053 214.115 264.02 213.992C263.986 213.867 263.922 213.767 263.828 213.691C263.734 213.616 263.609 213.576 263.453 213.57C263.273 213.565 263.122 213.603 263 213.684C262.878 213.764 262.777 213.871 262.699 214.004C262.621 214.137 262.561 214.281 262.52 214.438C262.478 214.591 262.448 214.74 262.43 214.883L262.414 215.039C262.401 215.177 262.405 215.315 262.426 215.453C262.447 215.589 262.487 215.711 262.547 215.82C262.609 215.93 262.694 216.018 262.801 216.086C262.91 216.154 263.047 216.19 263.211 216.195C263.419 216.201 263.611 216.16 263.785 216.074C263.962 215.986 264.121 215.868 264.262 215.723L264.754 216.316C264.637 216.493 264.487 216.639 264.305 216.754C264.125 216.866 263.931 216.948 263.723 217C263.514 217.055 263.307 217.081 263.102 217.078ZM266.973 213.754L266.41 217H265.312L266.047 212.773H267.078L266.973 213.754ZM268.352 212.738L268.215 213.789C268.152 213.779 268.089 213.77 268.023 213.762C267.961 213.754 267.897 213.749 267.832 213.746C267.681 213.743 267.544 213.763 267.422 213.805C267.299 213.846 267.193 213.908 267.102 213.988C267.013 214.066 266.938 214.163 266.875 214.277C266.815 214.392 266.77 214.521 266.738 214.664L266.523 214.594C266.549 214.393 266.592 214.182 266.652 213.961C266.715 213.737 266.801 213.529 266.91 213.336C267.022 213.141 267.164 212.983 267.336 212.863C267.51 212.741 267.723 212.681 267.973 212.684C268.038 212.684 268.1 212.689 268.16 212.699C268.223 212.71 268.286 212.723 268.352 212.738ZM270.605 215.809C270.626 215.684 270.595 215.587 270.512 215.52C270.428 215.449 270.326 215.396 270.203 215.359C270.083 215.323 269.979 215.294 269.891 215.273C269.734 215.232 269.577 215.18 269.418 215.117C269.262 215.052 269.12 214.971 268.992 214.875C268.865 214.779 268.763 214.661 268.688 214.523C268.612 214.383 268.578 214.217 268.586 214.027C268.594 213.801 268.651 213.604 268.758 213.438C268.867 213.268 269.008 213.129 269.18 213.02C269.352 212.908 269.539 212.824 269.742 212.77C269.945 212.715 270.147 212.69 270.348 212.695C270.629 212.698 270.889 212.75 271.129 212.852C271.371 212.953 271.566 213.104 271.715 213.305C271.866 213.505 271.941 213.755 271.941 214.055L270.852 214.051C270.854 213.936 270.836 213.836 270.797 213.75C270.758 213.664 270.698 213.598 270.617 213.551C270.536 213.504 270.434 213.48 270.309 213.48C270.21 213.48 270.111 213.5 270.012 213.539C269.915 213.576 269.832 213.63 269.762 213.703C269.691 213.776 269.647 213.866 269.629 213.973C269.613 214.061 269.626 214.134 269.668 214.191C269.71 214.249 269.766 214.296 269.836 214.332C269.906 214.366 269.98 214.395 270.059 214.418C270.137 214.439 270.207 214.456 270.27 214.469C270.499 214.529 270.723 214.605 270.941 214.699C271.16 214.793 271.339 214.924 271.477 215.094C271.615 215.26 271.678 215.483 271.668 215.762C271.66 215.999 271.598 216.202 271.48 216.371C271.363 216.538 271.212 216.674 271.027 216.781C270.845 216.885 270.647 216.961 270.434 217.008C270.223 217.057 270.016 217.081 269.812 217.078C269.529 217.073 269.262 217.016 269.012 216.906C268.764 216.797 268.564 216.638 268.41 216.43C268.257 216.219 268.178 215.961 268.176 215.656L269.207 215.66C269.21 215.796 269.237 215.91 269.289 216.004C269.341 216.098 269.415 216.169 269.512 216.219C269.611 216.266 269.728 216.289 269.863 216.289C269.97 216.292 270.076 216.277 270.18 216.246C270.286 216.215 270.379 216.164 270.457 216.094C270.535 216.021 270.585 215.926 270.605 215.809ZM274.539 216.047L274.836 214.152C274.849 214.038 274.844 213.931 274.82 213.832C274.797 213.733 274.749 213.655 274.676 213.598C274.605 213.538 274.505 213.505 274.375 213.5C274.258 213.497 274.152 213.518 274.059 213.562C273.967 213.604 273.892 213.665 273.832 213.746C273.772 213.824 273.73 213.918 273.707 214.027L272.605 214.035C272.618 213.801 272.684 213.599 272.801 213.43C272.921 213.258 273.072 213.117 273.254 213.008C273.436 212.898 273.634 212.818 273.848 212.766C274.064 212.714 274.275 212.69 274.48 212.695C274.775 212.701 275.036 212.762 275.266 212.879C275.497 212.996 275.674 213.164 275.797 213.383C275.922 213.599 275.969 213.862 275.938 214.172L275.645 215.984C275.621 216.135 275.603 216.294 275.59 216.461C275.577 216.625 275.6 216.781 275.66 216.93L275.652 217L274.574 217.004C274.525 216.85 274.5 216.693 274.5 216.531C274.503 216.367 274.516 216.206 274.539 216.047ZM274.961 214.426L274.855 215.062L274.297 215.059C274.185 215.061 274.073 215.077 273.961 215.105C273.852 215.132 273.75 215.173 273.656 215.23C273.562 215.285 273.484 215.357 273.422 215.445C273.362 215.534 273.324 215.642 273.309 215.77C273.296 215.861 273.305 215.943 273.336 216.016C273.367 216.086 273.415 216.142 273.48 216.184C273.548 216.225 273.629 216.247 273.723 216.25C273.855 216.253 273.986 216.228 274.113 216.176C274.241 216.121 274.352 216.044 274.445 215.945C274.539 215.846 274.604 215.732 274.641 215.602L274.875 216.09C274.812 216.236 274.733 216.37 274.637 216.492C274.543 216.615 274.435 216.721 274.312 216.812C274.19 216.901 274.056 216.969 273.91 217.016C273.764 217.065 273.608 217.089 273.441 217.086C273.21 217.081 272.996 217.026 272.801 216.922C272.608 216.815 272.454 216.671 272.34 216.488C272.228 216.303 272.177 216.089 272.188 215.844C272.198 215.568 272.267 215.339 272.395 215.156C272.522 214.971 272.686 214.826 272.887 214.719C273.09 214.612 273.31 214.536 273.547 214.492C273.786 214.445 274.023 214.422 274.258 214.422L274.961 214.426ZM275.602 211.02L276.23 211.059C276.22 211.233 276.178 211.401 276.105 211.562C276.035 211.721 275.934 211.852 275.801 211.953C275.668 212.055 275.504 212.104 275.309 212.102C275.212 212.102 275.121 212.083 275.035 212.047C274.952 212.008 274.87 211.965 274.789 211.918C274.711 211.868 274.63 211.827 274.547 211.793C274.466 211.757 274.38 211.74 274.289 211.742C274.172 211.747 274.085 211.789 274.027 211.867C273.973 211.943 273.931 212.029 273.902 212.125L273.25 212.094C273.263 211.922 273.306 211.757 273.379 211.598C273.454 211.436 273.559 211.303 273.691 211.199C273.824 211.095 273.987 211.044 274.18 211.047C274.273 211.049 274.362 211.07 274.445 211.109C274.529 211.146 274.611 211.188 274.691 211.234C274.772 211.281 274.854 211.323 274.938 211.359C275.021 211.393 275.109 211.408 275.203 211.402C275.318 211.4 275.405 211.361 275.465 211.285C275.525 211.21 275.57 211.121 275.602 211.02ZM276.496 214.953L276.508 214.871C276.539 214.572 276.611 214.29 276.723 214.027C276.837 213.762 276.988 213.529 277.176 213.328C277.366 213.125 277.589 212.967 277.844 212.855C278.102 212.741 278.391 212.688 278.711 212.695C279.016 212.701 279.279 212.762 279.5 212.879C279.721 212.996 279.902 213.154 280.043 213.352C280.186 213.549 280.286 213.776 280.344 214.031C280.404 214.286 280.421 214.556 280.395 214.84L280.387 214.926C280.353 215.223 280.277 215.503 280.16 215.766C280.046 216.026 279.893 216.257 279.703 216.457C279.516 216.655 279.293 216.81 279.035 216.922C278.777 217.034 278.491 217.086 278.176 217.078C277.876 217.073 277.615 217.013 277.391 216.898C277.167 216.781 276.984 216.625 276.844 216.43C276.703 216.232 276.604 216.007 276.547 215.754C276.49 215.501 276.473 215.234 276.496 214.953ZM277.605 214.871L277.598 214.957C277.585 215.082 277.581 215.216 277.586 215.359C277.591 215.5 277.613 215.634 277.652 215.762C277.694 215.889 277.762 215.993 277.855 216.074C277.949 216.155 278.078 216.198 278.242 216.203C278.417 216.208 278.566 216.173 278.691 216.098C278.816 216.022 278.919 215.921 279 215.793C279.081 215.663 279.145 215.522 279.191 215.371C279.238 215.217 279.27 215.068 279.285 214.922L279.293 214.84C279.303 214.715 279.306 214.581 279.301 214.438C279.298 214.292 279.276 214.155 279.234 214.027C279.193 213.897 279.125 213.79 279.031 213.707C278.938 213.624 278.809 213.579 278.645 213.574C278.47 213.566 278.32 213.603 278.195 213.684C278.07 213.762 277.967 213.866 277.887 213.996C277.806 214.126 277.742 214.268 277.695 214.422C277.651 214.576 277.621 214.725 277.605 214.871ZM286.234 211.301L285.273 217H284.176L284.938 212.621L283.555 213.047L283.715 212.117L286.094 211.301H286.234ZM287.258 216.477C287.255 216.299 287.314 216.154 287.434 216.039C287.556 215.924 287.704 215.867 287.879 215.867C288.046 215.865 288.189 215.917 288.309 216.023C288.431 216.128 288.493 216.266 288.496 216.438C288.499 216.615 288.439 216.76 288.316 216.875C288.197 216.99 288.049 217.047 287.875 217.047C287.708 217.049 287.564 216.999 287.441 216.895C287.322 216.788 287.26 216.648 287.258 216.477ZM293.598 213.656L293.449 214.637C293.402 214.949 293.327 215.253 293.223 215.547C293.121 215.839 292.983 216.102 292.809 216.336C292.634 216.57 292.418 216.755 292.16 216.891C291.902 217.023 291.594 217.086 291.234 217.078C290.961 217.073 290.728 217.022 290.535 216.926C290.345 216.829 290.189 216.702 290.066 216.543C289.947 216.382 289.855 216.198 289.793 215.992C289.733 215.784 289.698 215.565 289.688 215.336C289.68 215.104 289.69 214.872 289.719 214.641L289.863 213.656C289.91 213.346 289.986 213.046 290.09 212.754C290.194 212.462 290.333 212.201 290.508 211.969C290.682 211.734 290.898 211.552 291.156 211.422C291.417 211.289 291.725 211.227 292.082 211.234C292.355 211.24 292.587 211.29 292.777 211.387C292.97 211.48 293.126 211.607 293.246 211.766C293.368 211.924 293.46 212.107 293.52 212.312C293.582 212.518 293.617 212.736 293.625 212.965C293.635 213.194 293.626 213.424 293.598 213.656ZM292.332 214.789L292.523 213.496C292.534 213.402 292.544 213.297 292.555 213.18C292.568 213.06 292.57 212.939 292.562 212.816C292.557 212.694 292.536 212.581 292.5 212.477C292.466 212.37 292.41 212.284 292.332 212.219C292.254 212.151 292.147 212.113 292.012 212.105C291.824 212.098 291.668 212.138 291.543 212.227C291.421 212.312 291.322 212.428 291.246 212.574C291.173 212.72 291.117 212.875 291.078 213.039C291.039 213.203 291.008 213.358 290.984 213.504L290.797 214.793C290.786 214.887 290.775 214.993 290.762 215.113C290.751 215.233 290.749 215.355 290.754 215.48C290.762 215.605 290.783 215.721 290.816 215.828C290.85 215.935 290.906 216.022 290.984 216.09C291.062 216.158 291.169 216.195 291.305 216.203C291.492 216.214 291.648 216.174 291.773 216.086C291.898 215.995 291.997 215.876 292.07 215.73C292.146 215.582 292.203 215.424 292.242 215.258C292.281 215.089 292.311 214.932 292.332 214.789Z" fill="white"/>
<path d="M204.5 209.875C208.849 209.875 212.375 206.349 212.375 202C212.375 197.651 208.849 194.125 204.5 194.125C200.151 194.125 196.625 197.651 196.625 202C196.625 206.349 200.151 209.875 204.5 209.875Z" stroke="white" stroke-width="2" stroke-linecap="round" stroke-linejoin="round"/>
<path d="M200.236 208.626L198.875 218.875L204.5 215.5L210.125 218.875L208.764 208.615" stroke="white" stroke-width="2" stroke-linecap="round" stroke-linejoin="round"/>
</svg>
