<svg width="520" height="71" viewBox="0 0 520 71" fill="none" xmlns="http://www.w3.org/2000/svg">
<rect x="1.5" y="1.5" width="517" height="68" rx="8.5" fill="#005D91" stroke="#005D91" stroke-width="3"/>
<path d="M127.898 42.0928L129.334 47H132.981L126.155 25.6719H123.035L116.092 47H119.754L121.204 42.0928H127.898ZM122.098 39.0752L124.588 30.6377L127.034 39.0752H122.098ZM135.647 47H139.148V35.6914C139.305 35.4277 139.485 35.1836 139.69 34.959C139.896 34.7344 140.115 34.5439 140.35 34.3877C140.652 34.1826 140.989 34.0264 141.36 33.9189C141.731 33.8018 142.132 33.7432 142.562 33.7432C143.079 33.7432 143.538 33.8018 143.938 33.9189C144.339 34.0264 144.681 34.2119 144.964 34.4756C145.247 34.7393 145.462 35.0908 145.608 35.5303C145.755 35.9697 145.828 36.5166 145.828 37.1709V47H149.329V37.1123C149.329 35.999 149.197 35.0518 148.934 34.2705C148.67 33.4795 148.299 32.8301 147.82 32.3223C147.342 31.8145 146.766 31.4434 146.092 31.209C145.418 30.9746 144.676 30.8574 143.865 30.8574C143.25 30.8574 142.664 30.9453 142.107 31.1211C141.551 31.2969 141.038 31.5459 140.569 31.8682C140.276 32.0732 139.998 32.3076 139.734 32.5713C139.48 32.8252 139.246 33.1035 139.031 33.4062L138.812 31.1504H135.647V47ZM160.696 27.2832H157.181V31.1504H153.343V33.7725H157.181V41.5654C157.181 42.5811 157.312 43.4502 157.576 44.1729C157.85 44.8955 158.226 45.4863 158.704 45.9453C159.183 46.4141 159.754 46.7607 160.418 46.9854C161.092 47.2002 161.829 47.3076 162.63 47.3076C163.069 47.3076 163.509 47.2832 163.948 47.2344C164.397 47.1953 164.827 47.1367 165.237 47.0586C165.647 46.9805 166.028 46.8877 166.38 46.7803C166.741 46.6631 167.049 46.5264 167.303 46.3701L166.922 43.9531C166.746 43.9922 166.526 44.041 166.263 44.0996C166.009 44.1484 165.735 44.1924 165.442 44.2314C165.14 44.2803 164.827 44.3193 164.505 44.3486C164.183 44.3779 163.87 44.3926 163.567 44.3926C163.147 44.3926 162.762 44.3438 162.41 44.2461C162.059 44.1484 161.756 43.9824 161.502 43.748C161.248 43.5234 161.048 43.2158 160.901 42.8252C160.765 42.4248 160.696 41.9316 160.696 41.3457V33.7725H166.658V31.1504H160.696V27.2832ZM171.038 38.9287V39.2363C171.038 40.3984 171.204 41.4678 171.536 42.4443C171.868 43.4209 172.352 44.2705 172.986 44.9932C173.611 45.7158 174.383 46.2822 175.301 46.6924C176.219 47.1025 177.259 47.3076 178.421 47.3076C179.573 47.3076 180.604 47.1025 181.512 46.6924C182.43 46.2822 183.201 45.7158 183.826 44.9932C184.451 44.2705 184.93 43.4209 185.262 42.4443C185.594 41.4678 185.76 40.3984 185.76 39.2363V38.9287C185.76 37.7764 185.594 36.7119 185.262 35.7354C184.93 34.749 184.451 33.8945 183.826 33.1719C183.191 32.4492 182.415 31.8828 181.497 31.4727C180.589 31.0625 179.554 30.8574 178.392 30.8574C177.229 30.8574 176.194 31.0625 175.286 31.4727C174.378 31.8828 173.611 32.4492 172.986 33.1719C172.352 33.8945 171.868 34.749 171.536 35.7354C171.204 36.7119 171.038 37.7764 171.038 38.9287ZM174.539 39.2363V38.9287C174.539 38.2354 174.612 37.5713 174.759 36.9365C174.915 36.3018 175.154 35.7451 175.477 35.2666C175.789 34.7881 176.185 34.4072 176.663 34.124C177.151 33.8408 177.728 33.6992 178.392 33.6992C179.065 33.6992 179.642 33.8408 180.12 34.124C180.608 34.4072 181.014 34.7881 181.336 35.2666C181.639 35.7451 181.868 36.3018 182.024 36.9365C182.181 37.5713 182.259 38.2354 182.259 38.9287V39.2363C182.259 39.9492 182.181 40.623 182.024 41.2578C181.878 41.8926 181.648 42.4492 181.336 42.9277C181.023 43.4062 180.623 43.7871 180.135 44.0703C179.646 44.3438 179.075 44.4805 178.421 44.4805C177.747 44.4805 177.166 44.3438 176.678 44.0703C176.189 43.7871 175.789 43.4062 175.477 42.9277C175.154 42.4492 174.915 41.8926 174.759 41.2578C174.612 40.623 174.539 39.9492 174.539 39.2363ZM183.519 27.9424L179.49 24.4121H177.439L173.47 27.9277V28.3379H176.253L178.465 26.3311L180.691 28.3379H183.519V27.9424ZM189.7 47H193.201V35.6914C193.357 35.4277 193.538 35.1836 193.743 34.959C193.948 34.7344 194.168 34.5439 194.402 34.3877C194.705 34.1826 195.042 34.0264 195.413 33.9189C195.784 33.8018 196.185 33.7432 196.614 33.7432C197.132 33.7432 197.591 33.8018 197.991 33.9189C198.392 34.0264 198.733 34.2119 199.017 34.4756C199.3 34.7393 199.515 35.0908 199.661 35.5303C199.808 35.9697 199.881 36.5166 199.881 37.1709V47H203.382V37.1123C203.382 35.999 203.25 35.0518 202.986 34.2705C202.723 33.4795 202.352 32.8301 201.873 32.3223C201.395 31.8145 200.818 31.4434 200.145 31.209C199.471 30.9746 198.729 30.8574 197.918 30.8574C197.303 30.8574 196.717 30.9453 196.16 31.1211C195.604 31.2969 195.091 31.5459 194.622 31.8682C194.329 32.0732 194.051 32.3076 193.787 32.5713C193.533 32.8252 193.299 33.1035 193.084 33.4062L192.864 31.1504H189.7V47ZM208.523 31.1504V34.0654H213.401V44.0996H208.523V47H221.59V44.0996H216.932V31.1504H208.523ZM213.079 27.0488C213.079 27.4199 213.167 27.7471 213.343 28.0303C213.528 28.3037 213.797 28.4941 214.148 28.6016C214.49 28.709 214.803 28.7334 215.086 28.6748C215.369 28.6162 215.613 28.4941 215.818 28.3086C216.229 28.2012 216.541 27.9912 216.756 27.6787C216.971 27.3564 217.044 26.9805 216.976 26.5508C216.927 26.1309 216.736 25.7891 216.404 25.5254C216.082 25.252 215.657 25.1152 215.13 25.1152C214.817 25.1152 214.534 25.1641 214.28 25.2617C214.036 25.3496 213.826 25.4766 213.65 25.6426C213.465 25.8184 213.323 26.0283 213.226 26.2725C213.128 26.5068 213.079 26.7656 213.079 27.0488ZM225.091 38.9287V39.2363C225.091 40.3984 225.257 41.4678 225.589 42.4443C225.921 43.4209 226.404 44.2705 227.039 44.9932C227.664 45.7158 228.436 46.2822 229.354 46.6924C230.271 47.1025 231.312 47.3076 232.474 47.3076C233.626 47.3076 234.656 47.1025 235.564 46.6924C236.482 46.2822 237.254 45.7158 237.879 44.9932C238.504 44.2705 238.982 43.4209 239.314 42.4443C239.646 41.4678 239.812 40.3984 239.812 39.2363V38.9287C239.812 37.7764 239.646 36.7119 239.314 35.7354C238.982 34.749 238.504 33.8945 237.879 33.1719C237.244 32.4492 236.468 31.8828 235.55 31.4727C234.642 31.0625 233.606 30.8574 232.444 30.8574C231.282 30.8574 230.247 31.0625 229.339 31.4727C228.431 31.8828 227.664 32.4492 227.039 33.1719C226.404 33.8945 225.921 34.749 225.589 35.7354C225.257 36.7119 225.091 37.7764 225.091 38.9287ZM228.592 39.2363V38.9287C228.592 38.2354 228.665 37.5713 228.812 36.9365C228.968 36.3018 229.207 35.7451 229.529 35.2666C229.842 34.7881 230.237 34.4072 230.716 34.124C231.204 33.8408 231.78 33.6992 232.444 33.6992C233.118 33.6992 233.694 33.8408 234.173 34.124C234.661 34.4072 235.066 34.7881 235.389 35.2666C235.691 35.7451 235.921 36.3018 236.077 36.9365C236.233 37.5713 236.312 38.2354 236.312 38.9287V39.2363C236.312 39.9492 236.233 40.623 236.077 41.2578C235.931 41.8926 235.701 42.4492 235.389 42.9277C235.076 43.4062 234.676 43.7871 234.188 44.0703C233.699 44.3438 233.128 44.4805 232.474 44.4805C231.8 44.4805 231.219 44.3438 230.73 44.0703C230.242 43.7871 229.842 43.4062 229.529 42.9277C229.207 42.4492 228.968 41.8926 228.812 41.2578C228.665 40.623 228.592 39.9492 228.592 39.2363ZM268.846 38.7236L272.933 47H276.697V46.8096L272.142 37.8887C272.728 37.625 273.26 37.3125 273.738 36.9512C274.217 36.5898 274.627 36.1699 274.969 35.6914C275.311 35.2129 275.574 34.6758 275.76 34.0801C275.955 33.4844 276.053 32.8203 276.053 32.0879C276.053 31.0234 275.867 30.0957 275.496 29.3047C275.125 28.5039 274.607 27.835 273.943 27.2979C273.27 26.7705 272.469 26.3701 271.541 26.0967C270.613 25.8232 269.598 25.6816 268.494 25.6719H261.727V47H265.242V38.7236H268.846ZM265.242 35.8525V28.543H268.494C269.1 28.5527 269.646 28.6357 270.135 28.792C270.623 28.9385 271.038 29.1582 271.38 29.4512C271.751 29.7637 272.029 30.1543 272.215 30.623C272.41 31.082 272.508 31.6191 272.508 32.2344C272.508 32.7812 272.42 33.2695 272.244 33.6992C272.068 34.1289 271.824 34.4902 271.512 34.7832C271.16 35.125 270.73 35.3887 270.223 35.5742C269.725 35.75 269.163 35.8428 268.538 35.8525H265.242ZM287.186 47.293C288.729 47.293 290.042 46.9902 291.126 46.3848C292.22 45.7793 293.03 45.0957 293.558 44.334L291.683 42.5176C291.194 43.1426 290.574 43.626 289.822 43.9678C289.07 44.2998 288.26 44.4658 287.391 44.4658C286.756 44.4658 286.17 44.3584 285.633 44.1436C285.105 43.9287 284.646 43.626 284.256 43.2354C283.865 42.8643 283.558 42.4443 283.333 41.9756C283.108 41.5068 282.942 40.9258 282.835 40.2324V40.1592H293.821V38.6504C293.821 37.5176 293.67 36.4727 293.367 35.5156C293.064 34.5586 292.615 33.7334 292.02 33.04C291.424 32.3564 290.687 31.8242 289.808 31.4434C288.929 31.0527 287.918 30.8574 286.775 30.8574C285.75 30.8574 284.783 31.0527 283.875 31.4434C282.977 31.8242 282.186 32.3711 281.502 33.084C280.818 33.7969 280.281 34.6562 279.891 35.6621C279.5 36.668 279.305 37.791 279.305 39.0312V39.6318C279.305 40.7158 279.49 41.7266 279.861 42.6641C280.242 43.5918 280.779 44.3975 281.473 45.0811C282.166 45.7744 282.996 46.3164 283.963 46.707C284.939 47.0977 286.014 47.293 287.186 47.293ZM286.761 33.6992C287.347 33.6992 287.859 33.8018 288.299 34.0068C288.748 34.2021 289.119 34.4658 289.412 34.7979C289.715 35.1396 289.949 35.54 290.115 35.999C290.281 36.4482 290.364 36.9023 290.364 37.3613V37.5957H282.908C283.016 36.9902 283.182 36.4482 283.406 35.9697C283.631 35.4912 283.909 35.0811 284.241 34.7393C284.573 34.4072 284.949 34.1533 285.369 33.9775C285.799 33.792 286.263 33.6992 286.761 33.6992ZM311.736 39.2363V38.9287C311.736 38.0303 311.653 37.1807 311.487 36.3799C311.331 35.5791 311.097 34.8516 310.784 34.1973C310.55 33.7285 310.276 33.2988 309.964 32.9082C309.661 32.5078 309.314 32.1709 308.924 31.8975C308.465 31.5654 307.947 31.3115 307.371 31.1357C306.805 30.9502 306.18 30.8574 305.496 30.8574C304.979 30.8574 304.495 30.9111 304.046 31.0186C303.606 31.1162 303.201 31.2676 302.83 31.4727C302.547 31.6289 302.283 31.8096 302.039 32.0146C301.795 32.2197 301.57 32.4492 301.365 32.7031V24.5H297.864V47H301.028L301.189 45.2715C301.365 45.4863 301.546 45.6865 301.731 45.8721C301.927 46.0479 302.132 46.2139 302.347 46.3701C302.767 46.6729 303.24 46.9023 303.768 47.0586C304.295 47.2148 304.881 47.293 305.525 47.293C306.16 47.293 306.746 47.21 307.283 47.0439C307.83 46.8877 308.323 46.6631 308.763 46.3701C309.31 46.0088 309.778 45.5547 310.169 45.0078C310.56 44.4609 310.872 43.8506 311.106 43.1768C311.312 42.6104 311.468 41.9951 311.575 41.3311C311.683 40.667 311.736 39.9688 311.736 39.2363ZM308.235 38.9287V39.2363C308.235 39.6758 308.211 40.1006 308.162 40.5107C308.113 40.9209 308.04 41.3018 307.942 41.6533C307.825 42.1221 307.654 42.5469 307.43 42.9277C307.215 43.2988 306.937 43.6064 306.595 43.8506C306.341 44.0264 306.053 44.168 305.73 44.2754C305.408 44.373 305.047 44.4219 304.646 44.4219C304.207 44.4219 303.807 44.3682 303.445 44.2607C303.094 44.1436 302.781 43.9873 302.508 43.792C302.264 43.6064 302.044 43.3965 301.849 43.1621C301.663 42.918 301.502 42.6494 301.365 42.3564V35.7939C301.482 35.54 301.619 35.3057 301.775 35.0908C301.941 34.8662 302.127 34.6709 302.332 34.5049C302.615 34.2607 302.947 34.0752 303.328 33.9482C303.709 33.8115 304.139 33.7432 304.617 33.7432C305.008 33.7432 305.359 33.7871 305.672 33.875C305.984 33.9629 306.263 34.0947 306.507 34.2705C306.878 34.5244 307.171 34.8369 307.386 35.208C307.61 35.5693 307.791 35.9746 307.928 36.4238C308.025 36.7949 308.099 37.1953 308.147 37.625C308.206 38.0449 308.235 38.4795 308.235 38.9287ZM315.179 38.9287V39.2363C315.179 40.3984 315.345 41.4678 315.677 42.4443C316.009 43.4209 316.492 44.2705 317.127 44.9932C317.752 45.7158 318.523 46.2822 319.441 46.6924C320.359 47.1025 321.399 47.3076 322.562 47.3076C323.714 47.3076 324.744 47.1025 325.652 46.6924C326.57 46.2822 327.342 45.7158 327.967 44.9932C328.592 44.2705 329.07 43.4209 329.402 42.4443C329.734 41.4678 329.9 40.3984 329.9 39.2363V38.9287C329.9 37.7764 329.734 36.7119 329.402 35.7354C329.07 34.749 328.592 33.8945 327.967 33.1719C327.332 32.4492 326.556 31.8828 325.638 31.4727C324.729 31.0625 323.694 30.8574 322.532 30.8574C321.37 30.8574 320.335 31.0625 319.427 31.4727C318.519 31.8828 317.752 32.4492 317.127 33.1719C316.492 33.8945 316.009 34.749 315.677 35.7354C315.345 36.7119 315.179 37.7764 315.179 38.9287ZM318.68 39.2363V38.9287C318.68 38.2354 318.753 37.5713 318.899 36.9365C319.056 36.3018 319.295 35.7451 319.617 35.2666C319.93 34.7881 320.325 34.4072 320.804 34.124C321.292 33.8408 321.868 33.6992 322.532 33.6992C323.206 33.6992 323.782 33.8408 324.261 34.124C324.749 34.4072 325.154 34.7881 325.477 35.2666C325.779 35.7451 326.009 36.3018 326.165 36.9365C326.321 37.5713 326.399 38.2354 326.399 38.9287V39.2363C326.399 39.9492 326.321 40.623 326.165 41.2578C326.019 41.8926 325.789 42.4492 325.477 42.9277C325.164 43.4062 324.764 43.7871 324.275 44.0703C323.787 44.3438 323.216 44.4805 322.562 44.4805C321.888 44.4805 321.307 44.3438 320.818 44.0703C320.33 43.7871 319.93 43.4062 319.617 42.9277C319.295 42.4492 319.056 41.8926 318.899 41.2578C318.753 40.623 318.68 39.9492 318.68 39.2363ZM344.227 47H347.405V31.1504H343.89V42.3711C343.753 42.6641 343.587 42.9326 343.392 43.1768C343.196 43.4111 342.972 43.6162 342.718 43.792C342.415 43.9873 342.063 44.1436 341.663 44.2607C341.263 44.3682 340.809 44.4219 340.301 44.4219C339.812 44.4219 339.388 44.3584 339.026 44.2314C338.665 44.1045 338.367 43.8896 338.133 43.5869C337.898 43.2939 337.728 42.9033 337.62 42.415C337.513 41.917 337.459 41.3018 337.459 40.5693V31.1504H333.958V40.54C333.958 41.7314 334.09 42.7568 334.354 43.6162C334.617 44.4658 334.988 45.1641 335.467 45.7109C335.955 46.2578 336.536 46.6631 337.21 46.9268C337.894 47.1807 338.646 47.3076 339.466 47.3076C340.423 47.3076 341.287 47.0879 342.059 46.6484C342.83 46.1992 343.484 45.5791 344.021 44.7881L344.227 47ZM358.758 44.4805C358.025 44.4805 357.415 44.334 356.927 44.041C356.438 43.748 356.053 43.3574 355.77 42.8691C355.477 42.4004 355.267 41.8584 355.14 41.2432C355.022 40.6182 354.964 39.9834 354.964 39.3389V38.8262C354.964 38.1914 355.022 37.5664 355.14 36.9512C355.267 36.3359 355.481 35.7891 355.784 35.3105C356.067 34.832 356.448 34.4463 356.927 34.1533C357.415 33.8506 358.025 33.6992 358.758 33.6992C359.236 33.6992 359.681 33.7822 360.091 33.9482C360.511 34.1143 360.872 34.3389 361.175 34.6221C361.468 34.9053 361.692 35.2373 361.849 35.6182C362.015 35.999 362.098 36.4043 362.098 36.834H365.394C365.403 35.9551 365.242 35.1494 364.91 34.417C364.588 33.6846 364.134 33.0547 363.548 32.5273C362.962 32 362.259 31.5898 361.438 31.2969C360.628 31.0039 359.744 30.8574 358.787 30.8574C357.576 30.8574 356.512 31.0723 355.594 31.502C354.686 31.9219 353.924 32.4932 353.309 33.2158C352.693 33.9385 352.229 34.7832 351.917 35.75C351.614 36.7168 351.463 37.7422 351.463 38.8262V39.3389C351.463 40.4326 351.619 41.4629 351.932 42.4297C352.244 43.3867 352.708 44.2266 353.323 44.9492C353.929 45.6719 354.686 46.248 355.594 46.6777C356.512 47.0977 357.581 47.3076 358.802 47.3076C359.681 47.3076 360.516 47.166 361.307 46.8828C362.107 46.5898 362.815 46.1895 363.431 45.6816C364.036 45.1934 364.515 44.6123 364.866 43.9385C365.228 43.2549 365.403 42.5273 365.394 41.7559H362.098C362.098 42.1562 362.005 42.5225 361.819 42.8545C361.644 43.1865 361.404 43.4746 361.102 43.7188C360.789 43.9629 360.428 44.1533 360.018 44.29C359.617 44.417 359.197 44.4805 358.758 44.4805ZM360.105 46.9121H357.527L357.073 48.9336C357.454 48.9629 357.786 49.002 358.069 49.0508C358.353 49.0996 358.587 49.1729 358.772 49.2705C358.948 49.3682 359.075 49.4902 359.153 49.6367C359.241 49.793 359.285 49.9785 359.285 50.1934C359.285 50.4375 359.231 50.6426 359.124 50.8086C359.017 50.9746 358.875 51.1064 358.699 51.2041C358.514 51.3115 358.299 51.3896 358.055 51.4385C357.811 51.4873 357.547 51.5117 357.264 51.5117L357.366 53.5186C358.099 53.5186 358.748 53.4453 359.314 53.2988C359.881 53.1621 360.364 52.9668 360.765 52.7129C361.214 52.4395 361.556 52.0928 361.79 51.6729C362.034 51.2529 362.156 50.7744 362.156 50.2373C362.156 49.8174 362.093 49.4561 361.966 49.1533C361.839 48.8604 361.673 48.6162 361.468 48.4209C361.253 48.2256 361.014 48.0693 360.75 47.9521C360.486 47.835 360.213 47.752 359.93 47.7031L360.105 46.9121ZM379.998 47H383.572V46.751C383.377 46.3408 383.226 45.8525 383.118 45.2861C383.021 44.71 382.972 44.0654 382.972 43.3525V36.3066C382.972 35.4082 382.806 34.6172 382.474 33.9336C382.142 33.2402 381.683 32.6689 381.097 32.2197C380.511 31.7705 379.812 31.4336 379.002 31.209C378.201 30.9746 377.337 30.8574 376.409 30.8574C375.374 30.8574 374.451 30.9941 373.641 31.2676C372.84 31.5312 372.166 31.8926 371.619 32.3516C371.053 32.8008 370.623 33.3184 370.33 33.9043C370.037 34.4902 369.886 35.1006 369.876 35.7354H373.392C373.392 35.4326 373.445 35.1494 373.553 34.8857C373.67 34.6123 373.846 34.3828 374.08 34.1973C374.314 33.9922 374.607 33.8311 374.959 33.7139C375.32 33.5967 375.74 33.5381 376.219 33.5381C376.746 33.5381 377.21 33.6064 377.61 33.7432C378.021 33.8701 378.367 34.0557 378.65 34.2998C378.914 34.5439 379.114 34.832 379.251 35.1641C379.397 35.4961 379.471 35.8672 379.471 36.2773V37.3467H376.922C375.779 37.3467 374.754 37.4541 373.846 37.6689C372.947 37.8838 372.19 38.1963 371.575 38.6064C370.911 39.0459 370.403 39.6025 370.052 40.2764C369.71 40.9404 369.539 41.707 369.539 42.5762C369.539 43.25 369.671 43.8799 369.935 44.4658C370.208 45.042 370.589 45.5352 371.077 45.9453C371.556 46.3652 372.132 46.6973 372.806 46.9414C373.489 47.1758 374.241 47.293 375.062 47.293C375.569 47.293 376.043 47.2441 376.482 47.1465C376.922 47.0488 377.332 46.9121 377.713 46.7363C378.094 46.5703 378.436 46.375 378.738 46.1504C379.051 45.916 379.329 45.6719 379.573 45.418C379.622 45.7207 379.676 46.0137 379.734 46.2969C379.803 46.5703 379.891 46.8047 379.998 47ZM375.735 44.4805C375.286 44.4805 374.896 44.4268 374.563 44.3193C374.231 44.2021 373.953 44.0459 373.729 43.8506C373.504 43.6553 373.333 43.4209 373.216 43.1475C373.099 42.8643 373.04 42.5615 373.04 42.2393C373.04 41.8486 373.108 41.4971 373.245 41.1846C373.392 40.8721 373.611 40.6035 373.904 40.3789C374.236 40.1152 374.681 39.915 375.237 39.7783C375.794 39.6318 376.453 39.5586 377.215 39.5586H379.471V42.4883C379.344 42.7422 379.163 42.9863 378.929 43.2207C378.694 43.4551 378.416 43.665 378.094 43.8506C377.771 44.0361 377.41 44.1875 377.01 44.3047C376.619 44.4219 376.194 44.4805 375.735 44.4805ZM398.25 42.708C398.25 42.9619 398.191 43.1963 398.074 43.4111C397.967 43.6162 397.801 43.8066 397.576 43.9824C397.303 44.1973 396.937 44.3682 396.478 44.4951C396.028 44.6221 395.501 44.6855 394.896 44.6855C394.446 44.6855 394.002 44.6416 393.562 44.5537C393.123 44.4561 392.732 44.2998 392.391 44.085C392.039 43.8799 391.746 43.6113 391.512 43.2793C391.287 42.9375 391.16 42.5225 391.131 42.0342H387.732C387.732 42.6885 387.889 43.333 388.201 43.9678C388.514 44.6025 388.973 45.1641 389.578 45.6523C390.174 46.1504 390.911 46.5508 391.79 46.8535C392.679 47.1562 393.694 47.3076 394.837 47.3076C395.862 47.3076 396.795 47.1904 397.635 46.9561C398.475 46.7217 399.197 46.3945 399.803 45.9746C400.398 45.5547 400.857 45.0518 401.18 44.4658C401.512 43.8799 401.678 43.2354 401.678 42.5322C401.678 41.8096 401.521 41.1846 401.209 40.6572C400.896 40.1299 400.457 39.6709 399.891 39.2803C399.324 38.9092 398.641 38.5967 397.84 38.3428C397.039 38.0889 396.155 37.874 395.188 37.6982C394.495 37.5811 393.919 37.4492 393.46 37.3027C393.011 37.1562 392.659 36.9951 392.405 36.8193C392.132 36.6533 391.941 36.4629 391.834 36.248C391.727 36.0234 391.673 35.7744 391.673 35.501C391.673 35.2373 391.736 34.9883 391.863 34.7539C391.99 34.5098 392.181 34.2998 392.435 34.124C392.688 33.9287 393.011 33.7773 393.401 33.6699C393.802 33.5527 394.266 33.4941 394.793 33.4941C395.369 33.4941 395.872 33.5723 396.302 33.7285C396.731 33.875 397.083 34.0752 397.356 34.3291C397.591 34.5439 397.767 34.7881 397.884 35.0615C398.011 35.3252 398.074 35.6035 398.074 35.8965H401.575C401.575 35.1836 401.419 34.5195 401.106 33.9043C400.794 33.2891 400.35 32.7568 399.773 32.3076C399.188 31.8584 398.475 31.5068 397.635 31.2529C396.795 30.9893 395.848 30.8574 394.793 30.8574C393.807 30.8574 392.908 30.9844 392.098 31.2383C391.297 31.4922 390.613 31.8389 390.047 32.2783C389.471 32.7178 389.026 33.2305 388.714 33.8164C388.411 34.3926 388.26 35.0029 388.26 35.6475C388.26 36.3213 388.411 36.9121 388.714 37.4199C389.017 37.9277 389.437 38.3672 389.974 38.7383C390.521 39.1289 391.17 39.4609 391.922 39.7344C392.684 40.0078 393.523 40.2373 394.441 40.4229C395.174 40.5596 395.784 40.7061 396.272 40.8623C396.761 41.0186 397.156 41.1846 397.459 41.3604C397.742 41.5557 397.942 41.7607 398.06 41.9756C398.187 42.1904 398.25 42.4346 398.25 42.708Z" fill="white"/>
</svg>
