<svg width="1040" height="73" viewBox="0 0 1040 73" fill="none" xmlns="http://www.w3.org/2000/svg">
<rect x="1.5" y="1.5" width="1037" height="70" rx="8.5" fill="#005D91" stroke="#005D91" stroke-width="3"/>
<path d="M267.551 28.5869V25.6719H250.939V28.5869H257.473V47H260.974V28.5869H267.551ZM277.922 47.293C279.465 47.293 280.778 46.9902 281.862 46.3848C282.956 45.7793 283.767 45.0957 284.294 44.334L282.419 42.5176C281.931 43.1426 281.311 43.626 280.559 43.9678C279.807 44.2998 278.996 44.4658 278.127 44.4658C277.492 44.4658 276.906 44.3584 276.369 44.1436C275.842 43.9287 275.383 43.626 274.992 43.2354C274.602 42.8643 274.294 42.4443 274.069 41.9756C273.845 41.5068 273.679 40.9258 273.571 40.2324V40.1592H284.558V38.6504C284.558 37.5176 284.406 36.4727 284.104 35.5156C283.801 34.5586 283.352 33.7334 282.756 33.04C282.16 32.3564 281.423 31.8242 280.544 31.4434C279.665 31.0527 278.654 30.8574 277.512 30.8574C276.486 30.8574 275.52 31.0527 274.611 31.4434C273.713 31.8242 272.922 32.3711 272.238 33.084C271.555 33.7969 271.018 34.6562 270.627 35.6621C270.236 36.668 270.041 37.791 270.041 39.0312V39.6318C270.041 40.7158 270.227 41.7266 270.598 42.6641C270.979 43.5918 271.516 44.3975 272.209 45.0811C272.902 45.7744 273.732 46.3164 274.699 46.707C275.676 47.0977 276.75 47.293 277.922 47.293ZM277.497 33.6992C278.083 33.6992 278.596 33.8018 279.035 34.0068C279.484 34.2021 279.855 34.4658 280.148 34.7979C280.451 35.1396 280.686 35.54 280.852 35.999C281.018 36.4482 281.101 36.9023 281.101 37.3613V37.5957H273.645C273.752 36.9902 273.918 36.4482 274.143 35.9697C274.367 35.4912 274.646 35.0811 274.978 34.7393C275.31 34.4072 275.686 34.1533 276.105 33.9775C276.535 33.792 276.999 33.6992 277.497 33.6992ZM289.216 24.5V27.415H294.226V44.0996H289.216V47H302.561V44.0996H297.756V24.5H289.216ZM316.682 47H320.256V46.751C320.061 46.3408 319.909 45.8525 319.802 45.2861C319.704 44.71 319.655 44.0654 319.655 43.3525V36.3066C319.655 35.4082 319.489 34.6172 319.157 33.9336C318.825 33.2402 318.366 32.6689 317.78 32.2197C317.194 31.7705 316.496 31.4336 315.686 31.209C314.885 30.9746 314.021 30.8574 313.093 30.8574C312.058 30.8574 311.135 30.9941 310.324 31.2676C309.523 31.5312 308.85 31.8926 308.303 32.3516C307.736 32.8008 307.307 33.3184 307.014 33.9043C306.721 34.4902 306.569 35.1006 306.56 35.7354H310.075C310.075 35.4326 310.129 35.1494 310.236 34.8857C310.354 34.6123 310.529 34.3828 310.764 34.1973C310.998 33.9922 311.291 33.8311 311.643 33.7139C312.004 33.5967 312.424 33.5381 312.902 33.5381C313.43 33.5381 313.894 33.6064 314.294 33.7432C314.704 33.8701 315.051 34.0557 315.334 34.2998C315.598 34.5439 315.798 34.832 315.935 35.1641C316.081 35.4961 316.154 35.8672 316.154 36.2773V37.3467H313.605C312.463 37.3467 311.438 37.4541 310.529 37.6689C309.631 37.8838 308.874 38.1963 308.259 38.6064C307.595 39.0459 307.087 39.6025 306.735 40.2764C306.394 40.9404 306.223 41.707 306.223 42.5762C306.223 43.25 306.354 43.8799 306.618 44.4658C306.892 45.042 307.272 45.5352 307.761 45.9453C308.239 46.3652 308.815 46.6973 309.489 46.9414C310.173 47.1758 310.925 47.293 311.745 47.293C312.253 47.293 312.727 47.2441 313.166 47.1465C313.605 47.0488 314.016 46.9121 314.396 46.7363C314.777 46.5703 315.119 46.375 315.422 46.1504C315.734 45.916 316.013 45.6719 316.257 45.418C316.306 45.7207 316.359 46.0137 316.418 46.2969C316.486 46.5703 316.574 46.8047 316.682 47ZM312.419 44.4805C311.97 44.4805 311.579 44.4268 311.247 44.3193C310.915 44.2021 310.637 44.0459 310.412 43.8506C310.188 43.6553 310.017 43.4209 309.899 43.1475C309.782 42.8643 309.724 42.5615 309.724 42.2393C309.724 41.8486 309.792 41.4971 309.929 41.1846C310.075 40.8721 310.295 40.6035 310.588 40.3789C310.92 40.1152 311.364 39.915 311.921 39.7783C312.478 39.6318 313.137 39.5586 313.898 39.5586H316.154V42.4883C316.027 42.7422 315.847 42.9863 315.612 43.2207C315.378 43.4551 315.1 43.665 314.777 43.8506C314.455 44.0361 314.094 44.1875 313.693 44.3047C313.303 44.4219 312.878 44.4805 312.419 44.4805ZM334.934 42.708C334.934 42.9619 334.875 43.1963 334.758 43.4111C334.65 43.6162 334.484 43.8066 334.26 43.9824C333.986 44.1973 333.62 44.3682 333.161 44.4951C332.712 44.6221 332.185 44.6855 331.579 44.6855C331.13 44.6855 330.686 44.6416 330.246 44.5537C329.807 44.4561 329.416 44.2998 329.074 44.085C328.723 43.8799 328.43 43.6113 328.195 43.2793C327.971 42.9375 327.844 42.5225 327.814 42.0342H324.416C324.416 42.6885 324.572 43.333 324.885 43.9678C325.197 44.6025 325.656 45.1641 326.262 45.6523C326.857 46.1504 327.595 46.5508 328.474 46.8535C329.362 47.1562 330.378 47.3076 331.521 47.3076C332.546 47.3076 333.479 47.1904 334.318 46.9561C335.158 46.7217 335.881 46.3945 336.486 45.9746C337.082 45.5547 337.541 45.0518 337.863 44.4658C338.195 43.8799 338.361 43.2354 338.361 42.5322C338.361 41.8096 338.205 41.1846 337.893 40.6572C337.58 40.1299 337.141 39.6709 336.574 39.2803C336.008 38.9092 335.324 38.5967 334.523 38.3428C333.723 38.0889 332.839 37.874 331.872 37.6982C331.179 37.5811 330.603 37.4492 330.144 37.3027C329.694 37.1562 329.343 36.9951 329.089 36.8193C328.815 36.6533 328.625 36.4629 328.518 36.248C328.41 36.0234 328.356 35.7744 328.356 35.501C328.356 35.2373 328.42 34.9883 328.547 34.7539C328.674 34.5098 328.864 34.2998 329.118 34.124C329.372 33.9287 329.694 33.7773 330.085 33.6699C330.485 33.5527 330.949 33.4941 331.477 33.4941C332.053 33.4941 332.556 33.5723 332.985 33.7285C333.415 33.875 333.767 34.0752 334.04 34.3291C334.274 34.5439 334.45 34.7881 334.567 35.0615C334.694 35.3252 334.758 35.6035 334.758 35.8965H338.259C338.259 35.1836 338.103 34.5195 337.79 33.9043C337.478 33.2891 337.033 32.7568 336.457 32.3076C335.871 31.8584 335.158 31.5068 334.318 31.2529C333.479 30.9893 332.531 30.8574 331.477 30.8574C330.49 30.8574 329.592 30.9844 328.781 31.2383C327.98 31.4922 327.297 31.8389 326.73 32.2783C326.154 32.7178 325.71 33.2305 325.397 33.8164C325.095 34.3926 324.943 35.0029 324.943 35.6475C324.943 36.3213 325.095 36.9121 325.397 37.4199C325.7 37.9277 326.12 38.3672 326.657 38.7383C327.204 39.1289 327.854 39.4609 328.605 39.7344C329.367 40.0078 330.207 40.2373 331.125 40.4229C331.857 40.5596 332.468 40.7061 332.956 40.8623C333.444 41.0186 333.84 41.1846 334.143 41.3604C334.426 41.5557 334.626 41.7607 334.743 41.9756C334.87 42.1904 334.934 42.4346 334.934 42.708ZM360.144 38.958V39.2656C360.144 40.4082 360.29 41.4727 360.583 42.459C360.876 43.4355 361.291 44.2803 361.828 44.9932C362.365 45.7158 363.02 46.2822 363.791 46.6924C364.562 47.0928 365.432 47.293 366.398 47.293C367.316 47.293 368.127 47.127 368.83 46.7949C369.533 46.4531 370.139 45.9697 370.646 45.3447L370.808 47H373.986V24.5H370.485V32.6299C369.978 32.0635 369.392 31.6289 368.728 31.3262C368.073 31.0137 367.307 30.8574 366.428 30.8574C365.451 30.8574 364.572 31.0576 363.791 31.458C363.02 31.8486 362.365 32.4004 361.828 33.1133C361.281 33.8262 360.861 34.6807 360.568 35.6768C360.285 36.6631 360.144 37.7568 360.144 38.958ZM363.645 39.2656V38.958C363.645 38.2451 363.713 37.5762 363.85 36.9512C363.986 36.3164 364.206 35.7598 364.509 35.2812C364.792 34.8027 365.163 34.4268 365.622 34.1533C366.091 33.8799 366.652 33.7432 367.307 33.7432C368.088 33.7432 368.732 33.9189 369.24 34.2705C369.758 34.6123 370.173 35.0762 370.485 35.6621V42.4736C370.173 43.0693 369.758 43.543 369.24 43.8945C368.723 44.2363 368.068 44.4072 367.277 44.4072C366.633 44.4072 366.081 44.2754 365.622 44.0117C365.163 43.7383 364.787 43.3623 364.494 42.8838C364.201 42.4248 363.986 41.8828 363.85 41.2578C363.713 40.6328 363.645 39.9688 363.645 39.2656ZM377.985 38.9287V39.2363C377.985 40.3984 378.151 41.4678 378.483 42.4443C378.815 43.4209 379.299 44.2705 379.934 44.9932C380.559 45.7158 381.33 46.2822 382.248 46.6924C383.166 47.1025 384.206 47.3076 385.368 47.3076C386.521 47.3076 387.551 47.1025 388.459 46.6924C389.377 46.2822 390.148 45.7158 390.773 44.9932C391.398 44.2705 391.877 43.4209 392.209 42.4443C392.541 41.4678 392.707 40.3984 392.707 39.2363V38.9287C392.707 37.7764 392.541 36.7119 392.209 35.7354C391.877 34.749 391.398 33.8945 390.773 33.1719C390.139 32.4492 389.362 31.8828 388.444 31.4727C387.536 31.0625 386.501 30.8574 385.339 30.8574C384.177 30.8574 383.142 31.0625 382.233 31.4727C381.325 31.8828 380.559 32.4492 379.934 33.1719C379.299 33.8945 378.815 34.749 378.483 35.7354C378.151 36.7119 377.985 37.7764 377.985 38.9287ZM381.486 39.2363V38.9287C381.486 38.2354 381.56 37.5713 381.706 36.9365C381.862 36.3018 382.102 35.7451 382.424 35.2666C382.736 34.7881 383.132 34.4072 383.61 34.124C384.099 33.8408 384.675 33.6992 385.339 33.6992C386.013 33.6992 386.589 33.8408 387.067 34.124C387.556 34.4072 387.961 34.7881 388.283 35.2666C388.586 35.7451 388.815 36.3018 388.972 36.9365C389.128 37.5713 389.206 38.2354 389.206 38.9287V39.2363C389.206 39.9492 389.128 40.623 388.972 41.2578C388.825 41.8926 388.596 42.4492 388.283 42.9277C387.971 43.4062 387.57 43.7871 387.082 44.0703C386.594 44.3438 386.022 44.4805 385.368 44.4805C384.694 44.4805 384.113 44.3438 383.625 44.0703C383.137 43.7871 382.736 43.4062 382.424 42.9277C382.102 42.4492 381.862 41.8926 381.706 41.2578C381.56 40.623 381.486 39.9492 381.486 39.2363ZM414.416 47H419.807C420.783 47 421.696 46.8828 422.546 46.6484C423.405 46.4141 424.187 46.0771 424.89 45.6377C425.515 45.2373 426.081 44.7539 426.589 44.1875C427.106 43.6211 427.546 42.9912 427.907 42.2979C428.278 41.585 428.562 40.7988 428.757 39.9395C428.962 39.0703 429.064 38.1523 429.064 37.1855V35.5156C429.064 34.5098 428.957 33.5625 428.742 32.6738C428.527 31.7852 428.225 30.9697 427.834 30.2275C427.453 29.5146 426.979 28.8701 426.413 28.2939C425.856 27.7178 425.217 27.2393 424.494 26.8584C423.83 26.4873 423.093 26.1992 422.282 25.9941C421.472 25.7793 420.607 25.6719 419.689 25.6719H414.416V47ZM417.976 28.543H419.689C420.256 28.5527 420.783 28.6211 421.271 28.748C421.76 28.8652 422.199 29.0361 422.59 29.2607C423.127 29.5635 423.591 29.959 423.981 30.4473C424.372 30.9258 424.685 31.4629 424.919 32.0586C425.104 32.5469 425.246 33.0791 425.344 33.6553C425.441 34.2314 425.49 34.8418 425.49 35.4863V37.1855C425.49 37.8398 425.441 38.4551 425.344 39.0312C425.246 39.6074 425.104 40.1396 424.919 40.6279C424.704 41.2041 424.426 41.7168 424.084 42.166C423.752 42.6055 423.371 42.9717 422.941 43.2646C422.521 43.5479 422.048 43.7676 421.521 43.9238C421.003 44.0703 420.432 44.1436 419.807 44.1436H417.976V28.543ZM442.805 47H446.379V46.751C446.184 46.3408 446.032 45.8525 445.925 45.2861C445.827 44.71 445.778 44.0654 445.778 43.3525V36.3066C445.778 35.4082 445.612 34.6172 445.28 33.9336C444.948 33.2402 444.489 32.6689 443.903 32.2197C443.317 31.7705 442.619 31.4336 441.809 31.209C441.008 30.9746 440.144 30.8574 439.216 30.8574C438.181 30.8574 437.258 30.9941 436.447 31.2676C435.646 31.5312 434.973 31.8926 434.426 32.3516C433.859 32.8008 433.43 33.3184 433.137 33.9043C432.844 34.4902 432.692 35.1006 432.683 35.7354H436.198C436.198 35.4326 436.252 35.1494 436.359 34.8857C436.477 34.6123 436.652 34.3828 436.887 34.1973C437.121 33.9922 437.414 33.8311 437.766 33.7139C438.127 33.5967 438.547 33.5381 439.025 33.5381C439.553 33.5381 440.017 33.6064 440.417 33.7432C440.827 33.8701 441.174 34.0557 441.457 34.2998C441.721 34.5439 441.921 34.832 442.058 35.1641C442.204 35.4961 442.277 35.8672 442.277 36.2773V37.3467H439.729C438.586 37.3467 437.561 37.4541 436.652 37.6689C435.754 37.8838 434.997 38.1963 434.382 38.6064C433.718 39.0459 433.21 39.6025 432.858 40.2764C432.517 40.9404 432.346 41.707 432.346 42.5762C432.346 43.25 432.478 43.8799 432.741 44.4658C433.015 45.042 433.396 45.5352 433.884 45.9453C434.362 46.3652 434.938 46.6973 435.612 46.9414C436.296 47.1758 437.048 47.293 437.868 47.293C438.376 47.293 438.85 47.2441 439.289 47.1465C439.729 47.0488 440.139 46.9121 440.52 46.7363C440.9 46.5703 441.242 46.375 441.545 46.1504C441.857 45.916 442.136 45.6719 442.38 45.418C442.429 45.7207 442.482 46.0137 442.541 46.2969C442.609 46.5703 442.697 46.8047 442.805 47ZM438.542 44.4805C438.093 44.4805 437.702 44.4268 437.37 44.3193C437.038 44.2021 436.76 44.0459 436.535 43.8506C436.311 43.6553 436.14 43.4209 436.022 43.1475C435.905 42.8643 435.847 42.5615 435.847 42.2393C435.847 41.8486 435.915 41.4971 436.052 41.1846C436.198 40.8721 436.418 40.6035 436.711 40.3789C437.043 40.1152 437.487 39.915 438.044 39.7783C438.601 39.6318 439.26 39.5586 440.021 39.5586H442.277V42.4883C442.15 42.7422 441.97 42.9863 441.735 43.2207C441.501 43.4551 441.223 43.665 440.9 43.8506C440.578 44.0361 440.217 44.1875 439.816 44.3047C439.426 44.4219 439.001 44.4805 438.542 44.4805ZM461.057 42.708C461.057 42.9619 460.998 43.1963 460.881 43.4111C460.773 43.6162 460.607 43.8066 460.383 43.9824C460.109 44.1973 459.743 44.3682 459.284 44.4951C458.835 44.6221 458.308 44.6855 457.702 44.6855C457.253 44.6855 456.809 44.6416 456.369 44.5537C455.93 44.4561 455.539 44.2998 455.197 44.085C454.846 43.8799 454.553 43.6113 454.318 43.2793C454.094 42.9375 453.967 42.5225 453.938 42.0342H450.539C450.539 42.6885 450.695 43.333 451.008 43.9678C451.32 44.6025 451.779 45.1641 452.385 45.6523C452.98 46.1504 453.718 46.5508 454.597 46.8535C455.485 47.1562 456.501 47.3076 457.644 47.3076C458.669 47.3076 459.602 47.1904 460.441 46.9561C461.281 46.7217 462.004 46.3945 462.609 45.9746C463.205 45.5547 463.664 45.0518 463.986 44.4658C464.318 43.8799 464.484 43.2354 464.484 42.5322C464.484 41.8096 464.328 41.1846 464.016 40.6572C463.703 40.1299 463.264 39.6709 462.697 39.2803C462.131 38.9092 461.447 38.5967 460.646 38.3428C459.846 38.0889 458.962 37.874 457.995 37.6982C457.302 37.5811 456.726 37.4492 456.267 37.3027C455.817 37.1562 455.466 36.9951 455.212 36.8193C454.938 36.6533 454.748 36.4629 454.641 36.248C454.533 36.0234 454.479 35.7744 454.479 35.501C454.479 35.2373 454.543 34.9883 454.67 34.7539C454.797 34.5098 454.987 34.2998 455.241 34.124C455.495 33.9287 455.817 33.7773 456.208 33.6699C456.608 33.5527 457.072 33.4941 457.6 33.4941C458.176 33.4941 458.679 33.5723 459.108 33.7285C459.538 33.875 459.89 34.0752 460.163 34.3291C460.397 34.5439 460.573 34.7881 460.69 35.0615C460.817 35.3252 460.881 35.6035 460.881 35.8965H464.382C464.382 35.1836 464.226 34.5195 463.913 33.9043C463.601 33.2891 463.156 32.7568 462.58 32.3076C461.994 31.8584 461.281 31.5068 460.441 31.2529C459.602 30.9893 458.654 30.8574 457.6 30.8574C456.613 30.8574 455.715 30.9844 454.904 31.2383C454.104 31.4922 453.42 31.8389 452.854 32.2783C452.277 32.7178 451.833 33.2305 451.521 33.8164C451.218 34.3926 451.066 35.0029 451.066 35.6475C451.066 36.3213 451.218 36.9121 451.521 37.4199C451.823 37.9277 452.243 38.3672 452.78 38.7383C453.327 39.1289 453.977 39.4609 454.729 39.7344C455.49 40.0078 456.33 40.2373 457.248 40.4229C457.98 40.5596 458.591 40.7061 459.079 40.8623C459.567 41.0186 459.963 41.1846 460.266 41.3604C460.549 41.5557 460.749 41.7607 460.866 41.9756C460.993 42.1904 461.057 42.4346 461.057 42.708ZM472.219 33.4062V24.5H468.718V47H472.219V35.5303C472.385 35.2764 472.575 35.0469 472.79 34.8418C473.015 34.6367 473.254 34.4609 473.508 34.3145C473.811 34.1289 474.143 33.9873 474.504 33.8896C474.875 33.792 475.266 33.7432 475.676 33.7432C476.203 33.7432 476.667 33.8164 477.067 33.9629C477.478 34.0996 477.824 34.3145 478.107 34.6074C478.381 34.8809 478.586 35.2373 478.723 35.6768C478.869 36.1162 478.942 36.6289 478.942 37.2148V47H482.443V37.2441C482.443 36.1211 482.307 35.1592 482.033 34.3584C481.77 33.5479 481.394 32.8838 480.905 32.3662C480.417 31.8486 479.826 31.4678 479.133 31.2236C478.449 30.9795 477.692 30.8574 476.862 30.8574C476.267 30.8574 475.7 30.9453 475.163 31.1211C474.636 31.2871 474.152 31.5312 473.713 31.8535C473.43 32.0488 473.161 32.2783 472.907 32.542C472.653 32.8057 472.424 33.0938 472.219 33.4062ZM500.666 39.2363V38.9287C500.666 38.0303 500.583 37.1807 500.417 36.3799C500.261 35.5791 500.026 34.8516 499.714 34.1973C499.479 33.7285 499.206 33.2988 498.894 32.9082C498.591 32.5078 498.244 32.1709 497.854 31.8975C497.395 31.5654 496.877 31.3115 496.301 31.1357C495.734 30.9502 495.109 30.8574 494.426 30.8574C493.908 30.8574 493.425 30.9111 492.976 31.0186C492.536 31.1162 492.131 31.2676 491.76 31.4727C491.477 31.6289 491.213 31.8096 490.969 32.0146C490.725 32.2197 490.5 32.4492 490.295 32.7031V24.5H486.794V47H489.958L490.119 45.2715C490.295 45.4863 490.476 45.6865 490.661 45.8721C490.856 46.0479 491.062 46.2139 491.276 46.3701C491.696 46.6729 492.17 46.9023 492.697 47.0586C493.225 47.2148 493.811 47.293 494.455 47.293C495.09 47.293 495.676 47.21 496.213 47.0439C496.76 46.8877 497.253 46.6631 497.692 46.3701C498.239 46.0088 498.708 45.5547 499.099 45.0078C499.489 44.4609 499.802 43.8506 500.036 43.1768C500.241 42.6104 500.397 41.9951 500.505 41.3311C500.612 40.667 500.666 39.9688 500.666 39.2363ZM497.165 38.9287V39.2363C497.165 39.6758 497.141 40.1006 497.092 40.5107C497.043 40.9209 496.97 41.3018 496.872 41.6533C496.755 42.1221 496.584 42.5469 496.359 42.9277C496.145 43.2988 495.866 43.6064 495.524 43.8506C495.271 44.0264 494.982 44.168 494.66 44.2754C494.338 44.373 493.977 44.4219 493.576 44.4219C493.137 44.4219 492.736 44.3682 492.375 44.2607C492.023 44.1436 491.711 43.9873 491.438 43.792C491.193 43.6064 490.974 43.3965 490.778 43.1621C490.593 42.918 490.432 42.6494 490.295 42.3564V35.7939C490.412 35.54 490.549 35.3057 490.705 35.0908C490.871 34.8662 491.057 34.6709 491.262 34.5049C491.545 34.2607 491.877 34.0752 492.258 33.9482C492.639 33.8115 493.068 33.7432 493.547 33.7432C493.938 33.7432 494.289 33.7871 494.602 33.875C494.914 33.9629 495.192 34.0947 495.437 34.2705C495.808 34.5244 496.101 34.8369 496.315 35.208C496.54 35.5693 496.721 35.9746 496.857 36.4238C496.955 36.7949 497.028 37.1953 497.077 37.625C497.136 38.0449 497.165 38.4795 497.165 38.9287ZM504.108 38.9287V39.2363C504.108 40.3984 504.274 41.4678 504.606 42.4443C504.938 43.4209 505.422 44.2705 506.057 44.9932C506.682 45.7158 507.453 46.2822 508.371 46.6924C509.289 47.1025 510.329 47.3076 511.491 47.3076C512.644 47.3076 513.674 47.1025 514.582 46.6924C515.5 46.2822 516.271 45.7158 516.896 44.9932C517.521 44.2705 518 43.4209 518.332 42.4443C518.664 41.4678 518.83 40.3984 518.83 39.2363V38.9287C518.83 37.7764 518.664 36.7119 518.332 35.7354C518 34.749 517.521 33.8945 516.896 33.1719C516.262 32.4492 515.485 31.8828 514.567 31.4727C513.659 31.0625 512.624 30.8574 511.462 30.8574C510.3 30.8574 509.265 31.0625 508.356 31.4727C507.448 31.8828 506.682 32.4492 506.057 33.1719C505.422 33.8945 504.938 34.749 504.606 35.7354C504.274 36.7119 504.108 37.7764 504.108 38.9287ZM507.609 39.2363V38.9287C507.609 38.2354 507.683 37.5713 507.829 36.9365C507.985 36.3018 508.225 35.7451 508.547 35.2666C508.859 34.7881 509.255 34.4072 509.733 34.124C510.222 33.8408 510.798 33.6992 511.462 33.6992C512.136 33.6992 512.712 33.8408 513.19 34.124C513.679 34.4072 514.084 34.7881 514.406 35.2666C514.709 35.7451 514.938 36.3018 515.095 36.9365C515.251 37.5713 515.329 38.2354 515.329 38.9287V39.2363C515.329 39.9492 515.251 40.623 515.095 41.2578C514.948 41.8926 514.719 42.4492 514.406 42.9277C514.094 43.4062 513.693 43.7871 513.205 44.0703C512.717 44.3438 512.146 44.4805 511.491 44.4805C510.817 44.4805 510.236 44.3438 509.748 44.0703C509.26 43.7871 508.859 43.4062 508.547 42.9277C508.225 42.4492 507.985 41.8926 507.829 41.2578C507.683 40.623 507.609 39.9492 507.609 39.2363ZM532.893 47H536.467V46.751C536.271 46.3408 536.12 45.8525 536.013 45.2861C535.915 44.71 535.866 44.0654 535.866 43.3525V36.3066C535.866 35.4082 535.7 34.6172 535.368 33.9336C535.036 33.2402 534.577 32.6689 533.991 32.2197C533.405 31.7705 532.707 31.4336 531.896 31.209C531.096 30.9746 530.231 30.8574 529.304 30.8574C528.269 30.8574 527.346 30.9941 526.535 31.2676C525.734 31.5312 525.061 31.8926 524.514 32.3516C523.947 32.8008 523.518 33.3184 523.225 33.9043C522.932 34.4902 522.78 35.1006 522.771 35.7354H526.286C526.286 35.4326 526.34 35.1494 526.447 34.8857C526.564 34.6123 526.74 34.3828 526.975 34.1973C527.209 33.9922 527.502 33.8311 527.854 33.7139C528.215 33.5967 528.635 33.5381 529.113 33.5381C529.641 33.5381 530.104 33.6064 530.505 33.7432C530.915 33.8701 531.262 34.0557 531.545 34.2998C531.809 34.5439 532.009 34.832 532.146 35.1641C532.292 35.4961 532.365 35.8672 532.365 36.2773V37.3467H529.816C528.674 37.3467 527.648 37.4541 526.74 37.6689C525.842 37.8838 525.085 38.1963 524.47 38.6064C523.806 39.0459 523.298 39.6025 522.946 40.2764C522.604 40.9404 522.434 41.707 522.434 42.5762C522.434 43.25 522.565 43.8799 522.829 44.4658C523.103 45.042 523.483 45.5352 523.972 45.9453C524.45 46.3652 525.026 46.6973 525.7 46.9414C526.384 47.1758 527.136 47.293 527.956 47.293C528.464 47.293 528.938 47.2441 529.377 47.1465C529.816 47.0488 530.227 46.9121 530.607 46.7363C530.988 46.5703 531.33 46.375 531.633 46.1504C531.945 45.916 532.224 45.6719 532.468 45.418C532.517 45.7207 532.57 46.0137 532.629 46.2969C532.697 46.5703 532.785 46.8047 532.893 47ZM528.63 44.4805C528.181 44.4805 527.79 44.4268 527.458 44.3193C527.126 44.2021 526.848 44.0459 526.623 43.8506C526.398 43.6553 526.228 43.4209 526.11 43.1475C525.993 42.8643 525.935 42.5615 525.935 42.2393C525.935 41.8486 526.003 41.4971 526.14 41.1846C526.286 40.8721 526.506 40.6035 526.799 40.3789C527.131 40.1152 527.575 39.915 528.132 39.7783C528.688 39.6318 529.348 39.5586 530.109 39.5586H532.365V42.4883C532.238 42.7422 532.058 42.9863 531.823 43.2207C531.589 43.4551 531.311 43.665 530.988 43.8506C530.666 44.0361 530.305 44.1875 529.904 44.3047C529.514 44.4219 529.089 44.4805 528.63 44.4805ZM551.745 30.8574C550.651 30.8574 549.65 31.1113 548.742 31.6191C547.844 32.127 547.072 32.8252 546.428 33.7139L546.413 33.3477L546.267 31.1504H542.985V47H546.486V37.2148C546.672 36.7461 546.901 36.3311 547.175 35.9697C547.448 35.6084 547.78 35.3105 548.171 35.0762C548.532 34.832 548.947 34.6514 549.416 34.5342C549.885 34.417 550.412 34.3584 550.998 34.3584C551.516 34.3584 552.033 34.3877 552.551 34.4463C553.078 34.5049 553.61 34.5928 554.147 34.71L554.646 31.2529C554.343 31.1455 553.923 31.0527 553.386 30.9746C552.858 30.8965 552.312 30.8574 551.745 30.8574ZM558.337 38.958V39.2656C558.337 40.4082 558.483 41.4727 558.776 42.459C559.069 43.4355 559.484 44.2803 560.021 44.9932C560.559 45.7158 561.213 46.2822 561.984 46.6924C562.756 47.0928 563.625 47.293 564.592 47.293C565.51 47.293 566.32 47.127 567.023 46.7949C567.727 46.4531 568.332 45.9697 568.84 45.3447L569.001 47H572.18V24.5H568.679V32.6299C568.171 32.0635 567.585 31.6289 566.921 31.3262C566.267 31.0137 565.5 30.8574 564.621 30.8574C563.645 30.8574 562.766 31.0576 561.984 31.458C561.213 31.8486 560.559 32.4004 560.021 33.1133C559.475 33.8262 559.055 34.6807 558.762 35.6768C558.479 36.6631 558.337 37.7568 558.337 38.958ZM561.838 39.2656V38.958C561.838 38.2451 561.906 37.5762 562.043 36.9512C562.18 36.3164 562.399 35.7598 562.702 35.2812C562.985 34.8027 563.356 34.4268 563.815 34.1533C564.284 33.8799 564.846 33.7432 565.5 33.7432C566.281 33.7432 566.926 33.9189 567.434 34.2705C567.951 34.6123 568.366 35.0762 568.679 35.6621V42.4736C568.366 43.0693 567.951 43.543 567.434 43.8945C566.916 44.2363 566.262 44.4072 565.471 44.4072C564.826 44.4072 564.274 44.2754 563.815 44.0117C563.356 43.7383 562.98 43.3623 562.688 42.8838C562.395 42.4248 562.18 41.8828 562.043 41.2578C561.906 40.6328 561.838 39.9688 561.838 39.2656ZM608.098 39.0459V36.2041H596.306V39.0459H608.098ZM641.906 41.5068C641.906 41.9756 641.804 42.3906 641.599 42.752C641.403 43.1133 641.14 43.416 640.808 43.6602C640.466 43.9141 640.061 44.1045 639.592 44.2314C639.133 44.3584 638.635 44.4219 638.098 44.4219C637.463 44.4219 636.877 44.3438 636.34 44.1875C635.812 44.0312 635.354 43.792 634.963 43.4697C634.562 43.1572 634.245 42.7617 634.011 42.2832C633.786 41.7949 633.649 41.2236 633.601 40.5693H630.085C630.095 41.5947 630.3 42.5029 630.7 43.2939C631.11 44.085 631.662 44.7734 632.355 45.3594C633.107 45.9844 633.991 46.4629 635.007 46.7949C636.022 47.1172 637.053 47.2783 638.098 47.2783C639.084 47.2783 640.021 47.1562 640.91 46.9121C641.799 46.6582 642.58 46.2822 643.254 45.7842C643.918 45.3057 644.445 44.7051 644.836 43.9824C645.236 43.2598 645.437 42.4248 645.437 41.4775C645.437 40.4521 645.207 39.5488 644.748 38.7676C644.299 37.9766 643.698 37.2979 642.946 36.7314C642.341 36.2822 641.677 35.9014 640.954 35.5889C640.241 35.2666 639.509 34.998 638.757 34.7832C638.161 34.6074 637.59 34.417 637.043 34.2119C636.506 34.0068 636.027 33.7676 635.607 33.4941C635.197 33.2207 634.87 32.9033 634.626 32.542C634.382 32.1709 634.255 31.7412 634.245 31.2529C634.245 30.7939 634.338 30.3789 634.523 30.0078C634.709 29.6367 634.968 29.3193 635.3 29.0557C635.632 28.8018 636.022 28.6064 636.472 28.4697C636.931 28.3232 637.429 28.25 637.966 28.25C638.581 28.25 639.123 28.3428 639.592 28.5283C640.07 28.7041 640.476 28.9482 640.808 29.2607C641.13 29.583 641.379 29.9688 641.555 30.418C641.74 30.8574 641.857 31.3457 641.906 31.8828H645.393C645.393 30.916 645.197 30.0371 644.807 29.2461C644.426 28.4453 643.903 27.7568 643.239 27.1807C642.575 26.6143 641.794 26.1748 640.896 25.8623C640.007 25.54 639.045 25.3789 638.01 25.3789C637.033 25.3789 636.101 25.5156 635.212 25.7891C634.333 26.0527 633.562 26.4385 632.897 26.9463C632.233 27.4639 631.706 28.0889 631.315 28.8213C630.925 29.5439 630.729 30.3594 630.729 31.2676C630.729 32.1074 630.896 32.8643 631.228 33.5381C631.569 34.2021 632.038 34.7979 632.634 35.3252C633.229 35.8428 633.947 36.3115 634.787 36.7314C635.637 37.1416 636.564 37.4883 637.57 37.7715C638.225 37.957 638.815 38.167 639.343 38.4014C639.88 38.626 640.344 38.8799 640.734 39.1631C641.105 39.4658 641.394 39.8076 641.599 40.1885C641.804 40.5693 641.906 41.0088 641.906 41.5068ZM656.291 47.293C657.834 47.293 659.147 46.9902 660.231 46.3848C661.325 45.7793 662.136 45.0957 662.663 44.334L660.788 42.5176C660.3 43.1426 659.68 43.626 658.928 43.9678C658.176 44.2998 657.365 44.4658 656.496 44.4658C655.861 44.4658 655.275 44.3584 654.738 44.1436C654.211 43.9287 653.752 43.626 653.361 43.2354C652.971 42.8643 652.663 42.4443 652.438 41.9756C652.214 41.5068 652.048 40.9258 651.94 40.2324V40.1592H662.927V38.6504C662.927 37.5176 662.775 36.4727 662.473 35.5156C662.17 34.5586 661.721 33.7334 661.125 33.04C660.529 32.3564 659.792 31.8242 658.913 31.4434C658.034 31.0527 657.023 30.8574 655.881 30.8574C654.855 30.8574 653.889 31.0527 652.98 31.4434C652.082 31.8242 651.291 32.3711 650.607 33.084C649.924 33.7969 649.387 34.6562 648.996 35.6621C648.605 36.668 648.41 37.791 648.41 39.0312V39.6318C648.41 40.7158 648.596 41.7266 648.967 42.6641C649.348 43.5918 649.885 44.3975 650.578 45.0811C651.271 45.7744 652.102 46.3164 653.068 46.707C654.045 47.0977 655.119 47.293 656.291 47.293ZM655.866 33.6992C656.452 33.6992 656.965 33.8018 657.404 34.0068C657.854 34.2021 658.225 34.4658 658.518 34.7979C658.82 35.1396 659.055 35.54 659.221 35.999C659.387 36.4482 659.47 36.9023 659.47 37.3613V37.5957H652.014C652.121 36.9902 652.287 36.4482 652.512 35.9697C652.736 35.4912 653.015 35.0811 653.347 34.7393C653.679 34.4072 654.055 34.1533 654.475 33.9775C654.904 33.792 655.368 33.6992 655.866 33.6992ZM668.903 31.1504H665.856V47H669.079V34.8271C669.138 34.6807 669.201 34.5488 669.27 34.4316C669.348 34.3145 669.436 34.2119 669.533 34.124C669.66 33.9971 669.812 33.9043 669.987 33.8457C670.173 33.7773 670.383 33.7432 670.617 33.7432C670.832 33.7432 671.022 33.7725 671.188 33.8311C671.364 33.8896 671.516 33.9824 671.643 34.1094C671.77 34.2363 671.862 34.4121 671.921 34.6367C671.989 34.8516 672.023 35.1152 672.023 35.4277V47H675.188V35.2373C675.188 35.1396 675.188 35.0664 675.188 35.0176C675.188 34.959 675.188 34.9102 675.188 34.8711C675.227 34.7051 675.285 34.5586 675.363 34.4316C675.441 34.2949 675.539 34.1777 675.656 34.0801C675.783 33.9727 675.93 33.8896 676.096 33.8311C676.262 33.7725 676.457 33.7432 676.682 33.7432C676.896 33.7432 677.092 33.7725 677.268 33.8311C677.453 33.8896 677.609 33.9824 677.736 34.1094C677.863 34.2461 677.961 34.4268 678.029 34.6514C678.098 34.8662 678.132 35.1299 678.132 35.4424V47H681.354V35.4717C681.354 34.6416 681.267 33.9336 681.091 33.3477C680.925 32.752 680.686 32.2686 680.373 31.8975C680.061 31.5459 679.689 31.2871 679.26 31.1211C678.84 30.9453 678.376 30.8574 677.868 30.8574C677.478 30.8574 677.116 30.9062 676.784 31.0039C676.462 31.1016 676.169 31.2383 675.905 31.4141C675.7 31.5508 675.51 31.7168 675.334 31.9121C675.158 32.1074 675.002 32.3174 674.865 32.542C674.768 32.2979 674.65 32.083 674.514 31.8975C674.377 31.7021 674.221 31.5361 674.045 31.3994C673.82 31.2139 673.552 31.0771 673.239 30.9893C672.927 30.9014 672.575 30.8574 672.185 30.8574C671.433 30.8574 670.788 31.0381 670.251 31.3994C669.724 31.7607 669.309 32.2588 669.006 32.8936L668.903 31.1504ZM702.478 38.958V39.2656C702.478 40.4082 702.624 41.4727 702.917 42.459C703.21 43.4355 703.625 44.2803 704.162 44.9932C704.699 45.7158 705.354 46.2822 706.125 46.6924C706.896 47.0928 707.766 47.293 708.732 47.293C709.65 47.293 710.461 47.127 711.164 46.7949C711.867 46.4531 712.473 45.9697 712.98 45.3447L713.142 47H716.32V24.5H712.819V32.6299C712.312 32.0635 711.726 31.6289 711.062 31.3262C710.407 31.0137 709.641 30.8574 708.762 30.8574C707.785 30.8574 706.906 31.0576 706.125 31.458C705.354 31.8486 704.699 32.4004 704.162 33.1133C703.615 33.8262 703.195 34.6807 702.902 35.6768C702.619 36.6631 702.478 37.7568 702.478 38.958ZM705.979 39.2656V38.958C705.979 38.2451 706.047 37.5762 706.184 36.9512C706.32 36.3164 706.54 35.7598 706.843 35.2812C707.126 34.8027 707.497 34.4268 707.956 34.1533C708.425 33.8799 708.986 33.7432 709.641 33.7432C710.422 33.7432 711.066 33.9189 711.574 34.2705C712.092 34.6123 712.507 35.0762 712.819 35.6621V42.4736C712.507 43.0693 712.092 43.543 711.574 43.8945C711.057 44.2363 710.402 44.4072 709.611 44.4072C708.967 44.4072 708.415 44.2754 707.956 44.0117C707.497 43.7383 707.121 43.3623 706.828 42.8838C706.535 42.4248 706.32 41.8828 706.184 41.2578C706.047 40.6328 705.979 39.9688 705.979 39.2656ZM731.086 47H734.66V46.751C734.465 46.3408 734.313 45.8525 734.206 45.2861C734.108 44.71 734.06 44.0654 734.06 43.3525V36.3066C734.06 35.4082 733.894 34.6172 733.562 33.9336C733.229 33.2402 732.771 32.6689 732.185 32.2197C731.599 31.7705 730.9 31.4336 730.09 31.209C729.289 30.9746 728.425 30.8574 727.497 30.8574C726.462 30.8574 725.539 30.9941 724.729 31.2676C723.928 31.5312 723.254 31.8926 722.707 32.3516C722.141 32.8008 721.711 33.3184 721.418 33.9043C721.125 34.4902 720.974 35.1006 720.964 35.7354H724.479C724.479 35.4326 724.533 35.1494 724.641 34.8857C724.758 34.6123 724.934 34.3828 725.168 34.1973C725.402 33.9922 725.695 33.8311 726.047 33.7139C726.408 33.5967 726.828 33.5381 727.307 33.5381C727.834 33.5381 728.298 33.6064 728.698 33.7432C729.108 33.8701 729.455 34.0557 729.738 34.2998C730.002 34.5439 730.202 34.832 730.339 35.1641C730.485 35.4961 730.559 35.8672 730.559 36.2773V37.3467H728.01C726.867 37.3467 725.842 37.4541 724.934 37.6689C724.035 37.8838 723.278 38.1963 722.663 38.6064C721.999 39.0459 721.491 39.6025 721.14 40.2764C720.798 40.9404 720.627 41.707 720.627 42.5762C720.627 43.25 720.759 43.8799 721.022 44.4658C721.296 45.042 721.677 45.5352 722.165 45.9453C722.644 46.3652 723.22 46.6973 723.894 46.9414C724.577 47.1758 725.329 47.293 726.149 47.293C726.657 47.293 727.131 47.2441 727.57 47.1465C728.01 47.0488 728.42 46.9121 728.801 46.7363C729.182 46.5703 729.523 46.375 729.826 46.1504C730.139 45.916 730.417 45.6719 730.661 45.418C730.71 45.7207 730.764 46.0137 730.822 46.2969C730.891 46.5703 730.979 46.8047 731.086 47ZM726.823 44.4805C726.374 44.4805 725.983 44.4268 725.651 44.3193C725.319 44.2021 725.041 44.0459 724.816 43.8506C724.592 43.6553 724.421 43.4209 724.304 43.1475C724.187 42.8643 724.128 42.5615 724.128 42.2393C724.128 41.8486 724.196 41.4971 724.333 41.1846C724.479 40.8721 724.699 40.6035 724.992 40.3789C725.324 40.1152 725.769 39.915 726.325 39.7783C726.882 39.6318 727.541 39.5586 728.303 39.5586H730.559V42.4883C730.432 42.7422 730.251 42.9863 730.017 43.2207C729.782 43.4551 729.504 43.665 729.182 43.8506C728.859 44.0361 728.498 44.1875 728.098 44.3047C727.707 44.4219 727.282 44.4805 726.823 44.4805ZM738.513 38.958V39.2656C738.513 40.4082 738.659 41.4727 738.952 42.459C739.245 43.4355 739.66 44.2803 740.197 44.9932C740.734 45.7158 741.389 46.2822 742.16 46.6924C742.932 47.0928 743.801 47.293 744.768 47.293C745.686 47.293 746.496 47.127 747.199 46.7949C747.902 46.4531 748.508 45.9697 749.016 45.3447L749.177 47H752.355V24.5H748.854V32.6299C748.347 32.0635 747.761 31.6289 747.097 31.3262C746.442 31.0137 745.676 30.8574 744.797 30.8574C743.82 30.8574 742.941 31.0576 742.16 31.458C741.389 31.8486 740.734 32.4004 740.197 33.1133C739.65 33.8262 739.23 34.6807 738.938 35.6768C738.654 36.6631 738.513 37.7568 738.513 38.958ZM742.014 39.2656V38.958C742.014 38.2451 742.082 37.5762 742.219 36.9512C742.355 36.3164 742.575 35.7598 742.878 35.2812C743.161 34.8027 743.532 34.4268 743.991 34.1533C744.46 33.8799 745.021 33.7432 745.676 33.7432C746.457 33.7432 747.102 33.9189 747.609 34.2705C748.127 34.6123 748.542 35.0762 748.854 35.6621V42.4736C748.542 43.0693 748.127 43.543 747.609 43.8945C747.092 44.2363 746.438 44.4072 745.646 44.4072C745.002 44.4072 744.45 44.2754 743.991 44.0117C743.532 43.7383 743.156 43.3623 742.863 42.8838C742.57 42.4248 742.355 41.8828 742.219 41.2578C742.082 40.6328 742.014 39.9688 742.014 39.2656ZM756.354 38.9287V39.2363C756.354 40.3984 756.521 41.4678 756.853 42.4443C757.185 43.4209 757.668 44.2705 758.303 44.9932C758.928 45.7158 759.699 46.2822 760.617 46.6924C761.535 47.1025 762.575 47.3076 763.737 47.3076C764.89 47.3076 765.92 47.1025 766.828 46.6924C767.746 46.2822 768.518 45.7158 769.143 44.9932C769.768 44.2705 770.246 43.4209 770.578 42.4443C770.91 41.4678 771.076 40.3984 771.076 39.2363V38.9287C771.076 37.7764 770.91 36.7119 770.578 35.7354C770.246 34.749 769.768 33.8945 769.143 33.1719C768.508 32.4492 767.731 31.8828 766.813 31.4727C765.905 31.0625 764.87 30.8574 763.708 30.8574C762.546 30.8574 761.511 31.0625 760.603 31.4727C759.694 31.8828 758.928 32.4492 758.303 33.1719C757.668 33.8945 757.185 34.749 756.853 35.7354C756.521 36.7119 756.354 37.7764 756.354 38.9287ZM759.855 39.2363V38.9287C759.855 38.2354 759.929 37.5713 760.075 36.9365C760.231 36.3018 760.471 35.7451 760.793 35.2666C761.105 34.7881 761.501 34.4072 761.979 34.124C762.468 33.8408 763.044 33.6992 763.708 33.6992C764.382 33.6992 764.958 33.8408 765.437 34.124C765.925 34.4072 766.33 34.7881 766.652 35.2666C766.955 35.7451 767.185 36.3018 767.341 36.9365C767.497 37.5713 767.575 38.2354 767.575 38.9287V39.2363C767.575 39.9492 767.497 40.623 767.341 41.2578C767.194 41.8926 766.965 42.4492 766.652 42.9277C766.34 43.4062 765.939 43.7871 765.451 44.0703C764.963 44.3438 764.392 44.4805 763.737 44.4805C763.063 44.4805 762.482 44.3438 761.994 44.0703C761.506 43.7871 761.105 43.4062 760.793 42.9277C760.471 42.4492 760.231 41.8926 760.075 41.2578C759.929 40.623 759.855 39.9492 759.855 39.2363ZM785.373 42.708C785.373 42.9619 785.314 43.1963 785.197 43.4111C785.09 43.6162 784.924 43.8066 784.699 43.9824C784.426 44.1973 784.06 44.3682 783.601 44.4951C783.151 44.6221 782.624 44.6855 782.019 44.6855C781.569 44.6855 781.125 44.6416 780.686 44.5537C780.246 44.4561 779.855 44.2998 779.514 44.085C779.162 43.8799 778.869 43.6113 778.635 43.2793C778.41 42.9375 778.283 42.5225 778.254 42.0342H774.855C774.855 42.6885 775.012 43.333 775.324 43.9678C775.637 44.6025 776.096 45.1641 776.701 45.6523C777.297 46.1504 778.034 46.5508 778.913 46.8535C779.802 47.1562 780.817 47.3076 781.96 47.3076C782.985 47.3076 783.918 47.1904 784.758 46.9561C785.598 46.7217 786.32 46.3945 786.926 45.9746C787.521 45.5547 787.98 45.0518 788.303 44.4658C788.635 43.8799 788.801 43.2354 788.801 42.5322C788.801 41.8096 788.645 41.1846 788.332 40.6572C788.02 40.1299 787.58 39.6709 787.014 39.2803C786.447 38.9092 785.764 38.5967 784.963 38.3428C784.162 38.0889 783.278 37.874 782.312 37.6982C781.618 37.5811 781.042 37.4492 780.583 37.3027C780.134 37.1562 779.782 36.9951 779.528 36.8193C779.255 36.6533 779.064 36.4629 778.957 36.248C778.85 36.0234 778.796 35.7744 778.796 35.501C778.796 35.2373 778.859 34.9883 778.986 34.7539C779.113 34.5098 779.304 34.2998 779.558 34.124C779.812 33.9287 780.134 33.7773 780.524 33.6699C780.925 33.5527 781.389 33.4941 781.916 33.4941C782.492 33.4941 782.995 33.5723 783.425 33.7285C783.854 33.875 784.206 34.0752 784.479 34.3291C784.714 34.5439 784.89 34.7881 785.007 35.0615C785.134 35.3252 785.197 35.6035 785.197 35.8965H788.698C788.698 35.1836 788.542 34.5195 788.229 33.9043C787.917 33.2891 787.473 32.7568 786.896 32.3076C786.311 31.8584 785.598 31.5068 784.758 31.2529C783.918 30.9893 782.971 30.8574 781.916 30.8574C780.93 30.8574 780.031 30.9844 779.221 31.2383C778.42 31.4922 777.736 31.8389 777.17 32.2783C776.594 32.7178 776.149 33.2305 775.837 33.8164C775.534 34.3926 775.383 35.0029 775.383 35.6475C775.383 36.3213 775.534 36.9121 775.837 37.4199C776.14 37.9277 776.56 38.3672 777.097 38.7383C777.644 39.1289 778.293 39.4609 779.045 39.7344C779.807 40.0078 780.646 40.2373 781.564 40.4229C782.297 40.5596 782.907 40.7061 783.396 40.8623C783.884 41.0186 784.279 41.1846 784.582 41.3604C784.865 41.5557 785.065 41.7607 785.183 41.9756C785.31 42.1904 785.373 42.4346 785.373 42.708Z" fill="white"/>
</svg>
