<svg width="518" height="234" viewBox="0 0 518 234" fill="none" xmlns="http://www.w3.org/2000/svg">
<path d="M0 0H518V224C518 229.523 513.523 234 508 234H9.99998C4.47714 234 0 229.523 0 224V0Z" fill="white"/>
<g opacity="0.95">
<path d="M194.46 205.16C193.927 205.16 193.347 205.147 192.72 205.12C192.107 205.093 191.5 205.053 190.9 205C190.313 204.947 189.787 204.893 189.32 204.84V202.26C189.813 202.3 190.307 202.34 190.8 202.38C191.307 202.42 191.787 202.447 192.24 202.46C192.693 202.473 193.073 202.48 193.38 202.48C194.02 202.48 194.507 202.46 194.84 202.42C195.173 202.367 195.42 202.293 195.58 202.2C195.687 202.107 195.76 202.007 195.8 201.9C195.853 201.793 195.887 201.667 195.9 201.52C195.913 201.373 195.92 201.207 195.92 201.02C195.92 200.74 195.9 200.52 195.86 200.36C195.833 200.187 195.767 200.053 195.66 199.96C195.567 199.867 195.42 199.8 195.22 199.76C195.02 199.707 194.76 199.66 194.44 199.62L191.62 199.26C191.073 199.193 190.627 199.06 190.28 198.86C189.933 198.647 189.66 198.367 189.46 198.02C189.26 197.673 189.12 197.267 189.04 196.8C188.96 196.32 188.92 195.787 188.92 195.2C188.92 194.293 189.053 193.573 189.32 193.04C189.587 192.493 189.953 192.08 190.42 191.8C190.9 191.507 191.453 191.313 192.08 191.22C192.72 191.127 193.413 191.08 194.16 191.08C194.693 191.08 195.247 191.1 195.82 191.14C196.393 191.167 196.933 191.213 197.44 191.28C197.947 191.333 198.367 191.4 198.7 191.48V194C198.367 193.947 197.973 193.907 197.52 193.88C197.08 193.84 196.62 193.813 196.14 193.8C195.66 193.773 195.207 193.76 194.78 193.76C194.26 193.76 193.847 193.78 193.54 193.82C193.233 193.847 192.993 193.907 192.82 194C192.633 194.107 192.513 194.247 192.46 194.42C192.42 194.593 192.4 194.813 192.4 195.08C192.4 195.413 192.427 195.673 192.48 195.86C192.533 196.033 192.653 196.153 192.84 196.22C193.027 196.287 193.313 196.347 193.7 196.4L196.44 196.72C196.813 196.76 197.153 196.827 197.46 196.92C197.78 197.013 198.067 197.16 198.32 197.36C198.587 197.56 198.807 197.847 198.98 198.22C199.073 198.393 199.147 198.607 199.2 198.86C199.253 199.1 199.3 199.38 199.34 199.7C199.38 200.02 199.4 200.38 199.4 200.78C199.4 201.567 199.32 202.233 199.16 202.78C199 203.313 198.773 203.74 198.48 204.06C198.187 204.367 197.833 204.607 197.42 204.78C197.007 204.94 196.547 205.04 196.04 205.08C195.547 205.133 195.02 205.16 194.46 205.16ZM206.324 205.16C205.364 205.16 204.571 205.1 203.944 204.98C203.318 204.86 202.818 204.673 202.444 204.42C202.084 204.153 201.811 203.813 201.624 203.4C201.451 202.987 201.338 202.493 201.284 201.92C201.244 201.347 201.224 200.68 201.224 199.92C201.224 199 201.264 198.207 201.344 197.54C201.438 196.873 201.638 196.327 201.944 195.9C202.251 195.473 202.724 195.16 203.364 194.96C204.018 194.747 204.898 194.64 206.004 194.64C206.898 194.64 207.624 194.707 208.184 194.84C208.744 194.96 209.184 195.153 209.504 195.42C209.838 195.673 210.071 196.007 210.204 196.42C210.351 196.833 210.444 197.333 210.484 197.92C210.524 198.493 210.544 199.16 210.544 199.92V200.7H204.404C204.404 201.153 204.424 201.52 204.464 201.8C204.504 202.067 204.611 202.267 204.784 202.4C204.958 202.533 205.224 202.627 205.584 202.68C205.944 202.72 206.444 202.74 207.084 202.74C207.338 202.74 207.638 202.733 207.984 202.72C208.331 202.707 208.691 202.687 209.064 202.66C209.451 202.633 209.811 202.607 210.144 202.58V204.82C209.851 204.887 209.491 204.947 209.064 205C208.651 205.053 208.204 205.093 207.724 205.12C207.244 205.147 206.778 205.16 206.324 205.16ZM207.524 199.36V199.04C207.524 198.56 207.498 198.18 207.444 197.9C207.404 197.62 207.324 197.413 207.204 197.28C207.098 197.133 206.944 197.04 206.744 197C206.544 196.96 206.291 196.94 205.984 196.94C205.638 196.94 205.358 196.967 205.144 197.02C204.944 197.06 204.791 197.153 204.684 197.3C204.578 197.447 204.504 197.66 204.464 197.94C204.424 198.22 204.404 198.587 204.404 199.04H207.864L207.524 199.36ZM212.697 205V194.8H215.737L215.817 196.04H215.997C216.184 195.693 216.417 195.42 216.697 195.22C216.99 195.007 217.317 194.86 217.677 194.78C218.037 194.687 218.424 194.64 218.837 194.64C219.637 194.64 220.244 194.753 220.657 194.98C221.07 195.193 221.364 195.547 221.537 196.04H221.717C221.917 195.693 222.164 195.42 222.457 195.22C222.75 195.007 223.077 194.86 223.437 194.78C223.81 194.687 224.204 194.64 224.617 194.64C225.484 194.64 226.124 194.793 226.537 195.1C226.964 195.407 227.244 195.853 227.377 196.44C227.524 197.027 227.597 197.753 227.597 198.62V205H224.397V199.6C224.397 199.053 224.377 198.627 224.337 198.32C224.31 198 224.257 197.767 224.177 197.62C224.097 197.473 223.97 197.387 223.797 197.36C223.624 197.32 223.397 197.3 223.117 197.3C222.81 197.3 222.564 197.34 222.377 197.42C222.19 197.487 222.05 197.607 221.957 197.78C221.864 197.953 221.804 198.193 221.777 198.5C221.764 198.807 221.757 199.2 221.757 199.68V205H218.537V199.6C218.537 199.053 218.524 198.627 218.497 198.32C218.47 198 218.41 197.767 218.317 197.62C218.237 197.473 218.11 197.387 217.937 197.36C217.777 197.32 217.557 197.3 217.277 197.3C216.97 197.3 216.724 197.34 216.537 197.42C216.35 197.487 216.21 197.607 216.117 197.78C216.024 197.953 215.964 198.2 215.937 198.52C215.91 198.827 215.897 199.213 215.897 199.68V205H212.697ZM235.338 205V191.24H242.158C243.051 191.24 243.771 191.34 244.318 191.54C244.878 191.727 245.298 192.013 245.578 192.4C245.871 192.773 246.065 193.24 246.158 193.8C246.265 194.347 246.318 194.973 246.318 195.68C246.318 196.2 246.278 196.727 246.198 197.26C246.118 197.78 245.945 198.26 245.678 198.7C245.425 199.127 245.031 199.453 244.498 199.68L246.578 205H242.958L241.018 199.5L241.898 199.98C241.778 200.047 241.651 200.087 241.518 200.1C241.398 200.113 241.245 200.12 241.058 200.12H238.818V205H235.338ZM238.818 197.54H240.818C241.271 197.54 241.631 197.52 241.898 197.48C242.178 197.427 242.385 197.333 242.518 197.2C242.651 197.067 242.738 196.88 242.778 196.64C242.818 196.4 242.838 196.093 242.838 195.72C242.838 195.333 242.818 195.02 242.778 194.78C242.751 194.54 242.671 194.36 242.538 194.24C242.418 194.107 242.218 194.013 241.938 193.96C241.671 193.907 241.298 193.88 240.818 193.88H238.818V197.54ZM253.355 205.16C252.395 205.16 251.602 205.1 250.975 204.98C250.349 204.86 249.849 204.673 249.475 204.42C249.115 204.153 248.842 203.813 248.655 203.4C248.482 202.987 248.369 202.493 248.315 201.92C248.275 201.347 248.255 200.68 248.255 199.92C248.255 199 248.295 198.207 248.375 197.54C248.469 196.873 248.669 196.327 248.975 195.9C249.282 195.473 249.755 195.16 250.395 194.96C251.049 194.747 251.929 194.64 253.035 194.64C253.929 194.64 254.655 194.707 255.215 194.84C255.775 194.96 256.215 195.153 256.535 195.42C256.869 195.673 257.102 196.007 257.235 196.42C257.382 196.833 257.475 197.333 257.515 197.92C257.555 198.493 257.575 199.16 257.575 199.92V200.7H251.435C251.435 201.153 251.455 201.52 251.495 201.8C251.535 202.067 251.642 202.267 251.815 202.4C251.989 202.533 252.255 202.627 252.615 202.68C252.975 202.72 253.475 202.74 254.115 202.74C254.369 202.74 254.669 202.733 255.015 202.72C255.362 202.707 255.722 202.687 256.095 202.66C256.482 202.633 256.842 202.607 257.175 202.58V204.82C256.882 204.887 256.522 204.947 256.095 205C255.682 205.053 255.235 205.093 254.755 205.12C254.275 205.147 253.809 205.16 253.355 205.16ZM254.555 199.36V199.04C254.555 198.56 254.529 198.18 254.475 197.9C254.435 197.62 254.355 197.413 254.235 197.28C254.129 197.133 253.975 197.04 253.775 197C253.575 196.96 253.322 196.94 253.015 196.94C252.669 196.94 252.389 196.967 252.175 197.02C251.975 197.06 251.822 197.153 251.715 197.3C251.609 197.447 251.535 197.66 251.495 197.94C251.455 198.22 251.435 198.587 251.435 199.04H254.895L254.555 199.36ZM263.808 209.12C263.382 209.12 262.935 209.107 262.468 209.08C262.015 209.067 261.588 209.04 261.188 209C260.788 208.96 260.455 208.913 260.188 208.86V206.64C260.468 206.653 260.768 206.66 261.088 206.66C261.408 206.673 261.728 206.68 262.048 206.68C262.382 206.68 262.695 206.68 262.988 206.68C263.642 206.68 264.148 206.653 264.508 206.6C264.882 206.56 265.155 206.46 265.328 206.3C265.515 206.153 265.628 205.927 265.668 205.62C265.708 205.327 265.728 204.927 265.728 204.42V203.7H265.568C265.368 204.047 265.122 204.313 264.828 204.5C264.548 204.673 264.235 204.793 263.888 204.86C263.542 204.927 263.168 204.96 262.768 204.96C262.155 204.96 261.635 204.88 261.208 204.72C260.782 204.547 260.428 204.273 260.148 203.9C259.882 203.513 259.688 202.987 259.568 202.32C259.448 201.653 259.388 200.82 259.388 199.82C259.388 198.807 259.448 197.967 259.568 197.3C259.702 196.633 259.902 196.107 260.168 195.72C260.435 195.333 260.782 195.06 261.208 194.9C261.635 194.727 262.148 194.64 262.748 194.64C263.122 194.64 263.488 194.68 263.848 194.76C264.222 194.827 264.562 194.96 264.868 195.16C265.188 195.36 265.448 195.653 265.648 196.04H265.808L265.888 194.8H268.948V203.84C268.948 204.733 268.902 205.513 268.808 206.18C268.715 206.847 268.502 207.393 268.168 207.82C267.848 208.26 267.342 208.587 266.648 208.8C265.968 209.013 265.022 209.12 263.808 209.12ZM264.168 202.34C264.555 202.34 264.848 202.3 265.048 202.22C265.262 202.127 265.415 201.967 265.508 201.74C265.602 201.527 265.662 201.267 265.688 200.96C265.715 200.64 265.728 200.26 265.728 199.82C265.728 199.393 265.715 199.02 265.688 198.7C265.675 198.38 265.615 198.12 265.508 197.92C265.415 197.667 265.262 197.5 265.048 197.42C264.848 197.327 264.555 197.28 264.168 197.28C263.808 197.28 263.522 197.307 263.308 197.36C263.095 197.4 262.935 197.5 262.828 197.66C262.735 197.82 262.675 198.073 262.648 198.42C262.622 198.767 262.608 199.233 262.608 199.82C262.608 200.407 262.622 200.867 262.648 201.2C262.675 201.533 262.735 201.787 262.828 201.96C262.935 202.12 263.095 202.227 263.308 202.28C263.522 202.32 263.808 202.34 264.168 202.34ZM271.388 192.72V190.14H274.688V192.72H271.388ZM271.428 205V194.8H274.668V205H271.428ZM281.11 205.16C280.683 205.16 280.217 205.147 279.71 205.12C279.217 205.093 278.73 205.06 278.25 205.02C277.783 204.98 277.363 204.933 276.99 204.88V202.62C277.203 202.633 277.443 202.653 277.71 202.68C277.99 202.707 278.277 202.727 278.57 202.74C278.863 202.753 279.143 202.767 279.41 202.78C279.69 202.78 279.943 202.78 280.17 202.78C280.797 202.78 281.243 202.76 281.51 202.72C281.79 202.68 281.963 202.6 282.03 202.48C282.11 202.347 282.15 202.173 282.15 201.96C282.15 201.747 282.123 201.593 282.07 201.5C282.03 201.407 281.937 201.34 281.79 201.3C281.657 201.26 281.423 201.22 281.09 201.18L278.71 200.88C278.137 200.8 277.703 200.633 277.41 200.38C277.117 200.113 276.917 199.76 276.81 199.32C276.717 198.867 276.67 198.34 276.67 197.74C276.67 197.033 276.777 196.48 276.99 196.08C277.203 195.667 277.497 195.36 277.87 195.16C278.257 194.947 278.71 194.807 279.23 194.74C279.763 194.673 280.33 194.64 280.93 194.64C281.357 194.64 281.797 194.653 282.25 194.68C282.703 194.707 283.137 194.747 283.55 194.8C283.963 194.84 284.303 194.887 284.57 194.94V197.18C284.237 197.153 283.883 197.127 283.51 197.1C283.15 197.073 282.803 197.053 282.47 197.04C282.137 197.027 281.857 197.02 281.63 197.02C281.097 197.02 280.683 197.033 280.39 197.06C280.11 197.087 279.917 197.153 279.81 197.26C279.717 197.367 279.67 197.54 279.67 197.78C279.67 197.967 279.683 198.113 279.71 198.22C279.75 198.313 279.837 198.38 279.97 198.42C280.103 198.46 280.31 198.5 280.59 198.54L282.99 198.84C283.443 198.893 283.83 199 284.15 199.16C284.47 199.32 284.71 199.607 284.87 200.02C285.043 200.433 285.13 201.053 285.13 201.88C285.13 202.627 285.03 203.22 284.83 203.66C284.643 204.087 284.37 204.413 284.01 204.64C283.65 204.853 283.223 204.993 282.73 205.06C282.25 205.127 281.71 205.16 281.11 205.16ZM288.073 205V197.24H286.213V194.8H288.073V191.84H291.313V194.8H293.533V197.24H291.313V205H288.073ZM295.197 205V194.8H298.237L298.317 196.54H298.497C298.684 196.047 298.917 195.66 299.197 195.38C299.49 195.1 299.844 194.907 300.257 194.8C300.67 194.693 301.15 194.64 301.697 194.64V197.58C300.857 197.58 300.197 197.687 299.717 197.9C299.237 198.113 298.897 198.48 298.697 199C298.497 199.507 298.397 200.22 298.397 201.14V205H295.197ZM307.783 205.16C306.876 205.16 306.123 205.107 305.523 205C304.923 204.893 304.449 204.72 304.103 204.48C303.756 204.24 303.503 203.92 303.343 203.52C303.183 203.12 303.076 202.62 303.023 202.02C302.983 201.42 302.963 200.707 302.963 199.88C302.963 199.053 302.983 198.347 303.023 197.76C303.076 197.16 303.183 196.66 303.343 196.26C303.503 195.86 303.756 195.54 304.103 195.3C304.449 195.06 304.923 194.893 305.523 194.8C306.123 194.693 306.876 194.64 307.783 194.64C308.703 194.64 309.463 194.693 310.063 194.8C310.663 194.893 311.136 195.06 311.483 195.3C311.829 195.54 312.083 195.86 312.243 196.26C312.403 196.66 312.503 197.16 312.543 197.76C312.596 198.347 312.622 199.053 312.622 199.88C312.622 200.707 312.596 201.42 312.543 202.02C312.503 202.62 312.403 203.12 312.243 203.52C312.083 203.92 311.829 204.24 311.483 204.48C311.136 204.72 310.663 204.893 310.063 205C309.463 205.107 308.703 205.16 307.783 205.16ZM307.783 202.72C308.183 202.72 308.496 202.693 308.723 202.64C308.949 202.587 309.109 202.467 309.203 202.28C309.296 202.093 309.349 201.807 309.363 201.42C309.389 201.033 309.403 200.52 309.403 199.88C309.403 199.24 309.389 198.733 309.363 198.36C309.349 197.987 309.296 197.707 309.203 197.52C309.109 197.333 308.949 197.213 308.723 197.16C308.496 197.107 308.183 197.08 307.783 197.08C307.383 197.08 307.069 197.107 306.843 197.16C306.629 197.213 306.476 197.333 306.383 197.52C306.289 197.707 306.229 197.987 306.203 198.36C306.189 198.733 306.183 199.24 306.183 199.88C306.183 200.52 306.189 201.033 306.203 201.42C306.229 201.807 306.289 202.093 306.383 202.28C306.476 202.467 306.629 202.587 306.843 202.64C307.069 202.693 307.383 202.72 307.783 202.72ZM318.727 205.16C318.301 205.16 317.834 205.147 317.327 205.12C316.834 205.093 316.347 205.06 315.867 205.02C315.401 204.98 314.981 204.933 314.607 204.88V202.62C314.821 202.633 315.061 202.653 315.327 202.68C315.607 202.707 315.894 202.727 316.187 202.74C316.481 202.753 316.761 202.767 317.027 202.78C317.307 202.78 317.561 202.78 317.787 202.78C318.414 202.78 318.861 202.76 319.127 202.72C319.407 202.68 319.581 202.6 319.647 202.48C319.727 202.347 319.767 202.173 319.767 201.96C319.767 201.747 319.741 201.593 319.687 201.5C319.647 201.407 319.554 201.34 319.407 201.3C319.274 201.26 319.041 201.22 318.707 201.18L316.327 200.88C315.754 200.8 315.321 200.633 315.027 200.38C314.734 200.113 314.534 199.76 314.427 199.32C314.334 198.867 314.287 198.34 314.287 197.74C314.287 197.033 314.394 196.48 314.607 196.08C314.821 195.667 315.114 195.36 315.487 195.16C315.874 194.947 316.327 194.807 316.847 194.74C317.381 194.673 317.947 194.64 318.547 194.64C318.974 194.64 319.414 194.653 319.867 194.68C320.321 194.707 320.754 194.747 321.167 194.8C321.581 194.84 321.921 194.887 322.187 194.94V197.18C321.854 197.153 321.501 197.127 321.127 197.1C320.767 197.073 320.421 197.053 320.087 197.04C319.754 197.027 319.474 197.02 319.247 197.02C318.714 197.02 318.301 197.033 318.007 197.06C317.727 197.087 317.534 197.153 317.427 197.26C317.334 197.367 317.287 197.54 317.287 197.78C317.287 197.967 317.301 198.113 317.327 198.22C317.367 198.313 317.454 198.38 317.587 198.42C317.721 198.46 317.927 198.5 318.207 198.54L320.607 198.84C321.061 198.893 321.447 199 321.767 199.16C322.087 199.32 322.327 199.607 322.487 200.02C322.661 200.433 322.747 201.053 322.747 201.88C322.747 202.627 322.647 203.22 322.447 203.66C322.261 204.087 321.987 204.413 321.627 204.64C321.267 204.853 320.841 204.993 320.347 205.06C319.867 205.127 319.327 205.16 318.727 205.16Z" fill="#005D91"/>
</g>
<g opacity="0.95">
<g clip-path="url(#clip0_330_213)">
<path d="M244.222 39.6353H178V76.9118H244.222V39.6353Z" fill="#E6E6E6"/>
<path d="M249.111 73.5837H182.444V35.8633H249.111V73.5837ZM182.889 73.1399H248.667V36.3071H182.889V73.1399Z" fill="#3F3D56"/>
<path d="M335.111 22.772H268.889V60.0486H335.111V22.772Z" fill="#F2F2F2"/>
<path d="M340 56.7204H273.333V19H340V56.7204ZM273.777 56.2766H339.555V19.4438H273.777V56.2766Z" fill="#3F3D56"/>
<path d="M291.803 165H207.136C207.077 165 207.021 164.977 206.979 164.935C206.937 164.893 206.914 164.837 206.914 164.778C206.914 164.719 206.937 164.663 206.979 164.621C207.021 164.58 207.077 164.556 207.136 164.556H291.803C291.862 164.556 291.918 164.58 291.96 164.621C292.002 164.663 292.025 164.719 292.025 164.778C292.025 164.837 292.002 164.893 291.96 164.935C291.918 164.977 291.862 165 291.803 165Z" fill="#CCCCCC"/>
<path d="M260.141 112.576C260.16 112.175 260.267 111.782 260.454 111.427C260.641 111.072 260.904 110.761 261.224 110.518C261.545 110.275 261.914 110.106 262.307 110.021C262.701 109.936 263.107 109.938 263.5 110.027L267.138 104.908L270.793 106.357L265.553 113.514C265.36 114.162 264.935 114.716 264.359 115.072C263.783 115.428 263.097 115.561 262.43 115.445C261.762 115.33 261.161 114.974 260.739 114.445C260.317 113.916 260.104 113.251 260.141 112.576L260.141 112.576Z" fill="#A0616A"/>
<path d="M264.132 108.173L270.6 97.3105L267.965 90.2933L271.554 80.7358L271.687 80.7925C271.774 80.8297 273.813 81.7384 274.115 84.9927L278.24 97.9368L267.232 112.197L264.132 108.173Z" fill="#005D91"/>
<path d="M229 68.2381C229.399 68.2881 229.782 68.4248 230.123 68.6386C230.463 68.8525 230.753 69.1383 230.97 69.4759C231.188 69.8134 231.329 70.1946 231.384 70.5925C231.438 70.9904 231.404 71.3954 231.285 71.7789L236.116 75.7966L234.386 79.3231L227.644 73.5538C227.012 73.3109 226.492 72.845 226.181 72.2443C225.87 71.6436 225.791 70.95 225.958 70.2947C226.125 69.6395 226.527 69.0683 227.087 68.6892C227.648 68.3102 228.329 68.1496 229 68.2381Z" fill="#A0616A"/>
<path d="M233.087 72.5513L243.434 79.8307L250.644 77.7496L259.91 82.0618L259.843 82.1892C259.8 82.2727 258.735 84.2328 255.462 84.2821L242.218 87.3876L228.83 75.3259L233.087 72.5513Z" fill="#005D91"/>
<path d="M252.02 161.072H248.423L246.712 147.219L252.021 147.219L252.02 161.072Z" fill="#A0616A"/>
<path d="M244.794 160.046H252.79V164.407H241.485V163.349C241.485 162.473 241.834 161.633 242.454 161.013C243.075 160.394 243.916 160.046 244.794 160.046Z" fill="#2F2E41"/>
<path d="M266.396 161.072H262.799L261.088 147.219L266.397 147.219L266.396 161.072Z" fill="#A0616A"/>
<path d="M259.17 160.046H267.167V164.407H255.862V163.349C255.862 162.473 256.211 161.633 256.831 161.013C257.452 160.394 258.293 160.046 259.17 160.046Z" fill="#2F2E41"/>
<path d="M267.675 110.507L267.382 131.014L267.089 157.965L260.634 157.379L257.406 120.174L253.299 157.379H246.635L245.964 119.881L248.311 111.679L267.675 110.507Z" fill="#2F2E41"/>
<path d="M247.668 111.804L246.685 111.761L251.252 86.6378L249.382 79.0442C249.285 78.6491 249.336 78.2322 249.526 77.8723C249.716 77.5125 250.032 77.2348 250.413 77.0919L253.778 75.8321L254.967 72.5679L264.346 73.577L264.577 76.1281C265.593 76.4536 273.963 79.2367 273.385 82.4079C272.815 85.5379 269.45 95.3856 269.279 95.8847L268.69 110.007L268.617 110.044C268.53 110.087 262.065 113.261 255.042 113.261C252.569 113.26 250.025 112.867 247.668 111.804Z" fill="#005D91"/>
<path d="M265.214 67.4441C267.003 64.1765 265.8 60.0796 262.528 58.2933C259.255 56.5071 255.152 57.708 253.363 60.9756C251.574 64.2432 252.777 68.3401 256.05 70.1263C259.322 71.9126 263.425 70.7117 265.214 67.4441Z" fill="#A0616A"/>
<path d="M264.759 70.7371C263.472 72.1059 261.082 71.3711 260.914 69.5011C260.901 69.3559 260.902 69.2098 260.917 69.0648C261.003 68.2365 261.483 67.4845 261.368 66.6099C261.342 66.3922 261.261 66.1848 261.132 66.0072C260.106 64.636 257.699 66.6205 256.731 65.3792C256.138 64.618 256.835 63.4196 256.38 62.5689C255.779 61.4461 253.998 62 252.882 61.3851C251.64 60.701 251.714 58.7979 252.532 57.6403C253.529 56.2287 255.277 55.4754 257.004 55.3668C258.731 55.2583 260.446 55.7243 262.058 56.3516C263.889 57.0643 265.706 58.0493 266.833 59.6574C268.204 61.6131 268.335 64.2422 267.65 66.529C267.233 67.92 265.81 69.6193 264.759 70.7371Z" fill="#2F2E41"/>
</g>
</g>
<defs>
<clipPath id="clip0_330_213">
<rect width="162" height="146" fill="white" transform="translate(178 19)"/>
</clipPath>
</defs>
</svg>
